<mxfile host="app.diagrams.net" modified="2020-11-06T07:28:47.947Z" agent="5.0 (Windows)" etag="vqtqH3K2ldkOfU2qaBwv" version="13.9.1" type="github">
  <diagram id="C5RBs43oDa-KdzZeNtuy" name="Page-1">
    <mxGraphModel dx="6481" dy="3477" grid="1" gridSize="10" guides="1" tooltips="1" connect="1" arrows="1" fold="1" page="1" pageScale="1" pageWidth="827" pageHeight="1169" math="0" shadow="0">
      <root>
        <mxCell id="WIyWlLk6GJQsqaUBKTNV-0" />
        <mxCell id="WIyWlLk6GJQsqaUBKTNV-1" parent="WIyWlLk6GJQsqaUBKTNV-0" />
        <mxCell id="AtgP_xt9bwcPU-3vSrDr-0" value="" style="rounded=0;whiteSpace=wrap;html=1;" vertex="1" parent="WIyWlLk6GJQsqaUBKTNV-1">
          <mxGeometry x="-1710" y="-190" width="1520" height="2520" as="geometry" />
        </mxCell>
        <mxCell id="PBRTsVXi39Mgpiq4fNoz-2" value="" style="rounded=0;html=1;jettySize=auto;orthogonalLoop=1;fontSize=11;endArrow=block;endFill=0;endSize=8;strokeWidth=1;shadow=0;labelBackgroundColor=none;edgeStyle=orthogonalEdgeStyle;" parent="WIyWlLk6GJQsqaUBKTNV-1" source="PBRTsVXi39Mgpiq4fNoz-3" edge="1">
          <mxGeometry relative="1" as="geometry">
            <mxPoint x="-720" y="111" as="targetPoint" />
          </mxGeometry>
        </mxCell>
        <mxCell id="PBRTsVXi39Mgpiq4fNoz-3" value="&lt;div&gt;TA2&lt;/div&gt;" style="rounded=1;whiteSpace=wrap;html=1;fontSize=12;glass=0;strokeWidth=1;shadow=0;fillColor=#99FF99;" parent="WIyWlLk6GJQsqaUBKTNV-1" vertex="1">
          <mxGeometry x="-780" y="1" width="120" height="40" as="geometry" />
        </mxCell>
        <mxCell id="PBRTsVXi39Mgpiq4fNoz-4" value="" style="endArrow=none;dashed=1;html=1;" parent="WIyWlLk6GJQsqaUBKTNV-1" edge="1">
          <mxGeometry width="50" height="50" relative="1" as="geometry">
            <mxPoint x="-720" y="61" as="sourcePoint" />
            <mxPoint x="-580" y="61" as="targetPoint" />
          </mxGeometry>
        </mxCell>
        <mxCell id="PBRTsVXi39Mgpiq4fNoz-5" value="&lt;div&gt;L2 : ON&lt;/div&gt;&lt;div&gt;&lt;br&gt;&lt;/div&gt;&lt;div&gt;L7 : ON&lt;br&gt;&lt;/div&gt;" style="strokeWidth=2;html=1;shape=mxgraph.flowchart.display;whiteSpace=wrap;" parent="WIyWlLk6GJQsqaUBKTNV-1" vertex="1">
          <mxGeometry x="-580" y="31" width="100" height="60" as="geometry" />
        </mxCell>
        <mxCell id="PBRTsVXi39Mgpiq4fNoz-6" value="B3 = MAN (1)" style="html=1;strokeWidth=2;shape=manualInput;whiteSpace=wrap;rounded=1;size=26;arcSize=11;" parent="WIyWlLk6GJQsqaUBKTNV-1" vertex="1">
          <mxGeometry x="-790" y="101" width="140" height="60" as="geometry" />
        </mxCell>
        <mxCell id="PBRTsVXi39Mgpiq4fNoz-7" value="" style="endArrow=classic;html=1;exitX=0.5;exitY=1;exitDx=0;exitDy=0;" parent="WIyWlLk6GJQsqaUBKTNV-1" source="PBRTsVXi39Mgpiq4fNoz-6" edge="1">
          <mxGeometry width="50" height="50" relative="1" as="geometry">
            <mxPoint x="-600" y="291" as="sourcePoint" />
            <mxPoint x="-720" y="191" as="targetPoint" />
          </mxGeometry>
        </mxCell>
        <mxCell id="PBRTsVXi39Mgpiq4fNoz-9" value="" style="endArrow=classic;html=1;exitX=0.5;exitY=1;exitDx=0;exitDy=0;" parent="WIyWlLk6GJQsqaUBKTNV-1" edge="1">
          <mxGeometry width="50" height="50" relative="1" as="geometry">
            <mxPoint x="-720" y="240" as="sourcePoint" />
            <mxPoint x="-720" y="300" as="targetPoint" />
          </mxGeometry>
        </mxCell>
        <mxCell id="PBRTsVXi39Mgpiq4fNoz-10" value="&lt;div&gt;L2 : ON&lt;/div&gt;" style="strokeWidth=2;html=1;shape=mxgraph.flowchart.display;whiteSpace=wrap;fillColor=#E1D5E7;" parent="WIyWlLk6GJQsqaUBKTNV-1" vertex="1">
          <mxGeometry x="-580" y="31" width="100" height="60" as="geometry" />
        </mxCell>
        <mxCell id="PBRTsVXi39Mgpiq4fNoz-11" value="&lt;div&gt;L2 : 2HZ&lt;br&gt;&lt;/div&gt;&lt;div&gt;&lt;br&gt;&lt;/div&gt;&lt;div&gt;L8 : ON**&lt;br&gt;&lt;/div&gt;" style="strokeWidth=2;html=1;shape=mxgraph.flowchart.display;whiteSpace=wrap;fillColor=#E1D5E7;" parent="WIyWlLk6GJQsqaUBKTNV-1" vertex="1">
          <mxGeometry x="-590" y="140" width="100" height="60" as="geometry" />
        </mxCell>
        <mxCell id="PBRTsVXi39Mgpiq4fNoz-12" value="" style="endArrow=none;dashed=1;html=1;entryX=0;entryY=0.5;entryDx=0;entryDy=0;entryPerimeter=0;" parent="WIyWlLk6GJQsqaUBKTNV-1" target="PBRTsVXi39Mgpiq4fNoz-11" edge="1">
          <mxGeometry width="50" height="50" relative="1" as="geometry">
            <mxPoint x="-720" y="170" as="sourcePoint" />
            <mxPoint x="-630" y="160" as="targetPoint" />
          </mxGeometry>
        </mxCell>
        <mxCell id="PBRTsVXi39Mgpiq4fNoz-14" style="edgeStyle=orthogonalEdgeStyle;rounded=0;orthogonalLoop=1;jettySize=auto;html=1;exitX=0.5;exitY=1;exitDx=0;exitDy=0;entryX=0.495;entryY=0.242;entryDx=0;entryDy=0;entryPerimeter=0;" parent="WIyWlLk6GJQsqaUBKTNV-1" edge="1">
          <mxGeometry relative="1" as="geometry">
            <mxPoint x="-720" y="488" as="sourcePoint" />
            <mxPoint x="-720.5" y="522.52" as="targetPoint" />
          </mxGeometry>
        </mxCell>
        <mxCell id="PBRTsVXi39Mgpiq4fNoz-16" value="" style="endArrow=classic;html=1;exitX=0.5;exitY=1;exitDx=0;exitDy=0;entryX=0.5;entryY=0;entryDx=0;entryDy=0;" parent="WIyWlLk6GJQsqaUBKTNV-1" source="PBRTsVXi39Mgpiq4fNoz-17" target="PBRTsVXi39Mgpiq4fNoz-47" edge="1">
          <mxGeometry width="50" height="50" relative="1" as="geometry">
            <mxPoint x="-526" y="391" as="sourcePoint" />
            <mxPoint x="-550" y="241" as="targetPoint" />
          </mxGeometry>
        </mxCell>
        <mxCell id="PBRTsVXi39Mgpiq4fNoz-17" value="B4" style="html=1;strokeWidth=2;shape=manualInput;whiteSpace=wrap;rounded=1;size=26;arcSize=11;" parent="WIyWlLk6GJQsqaUBKTNV-1" vertex="1">
          <mxGeometry x="-790" y="250" width="140" height="60" as="geometry" />
        </mxCell>
        <mxCell id="PBRTsVXi39Mgpiq4fNoz-26" value="INITIAL POSITION?" style="strokeWidth=2;html=1;shape=mxgraph.flowchart.decision;whiteSpace=wrap;fillColor=#CCE5FF;" parent="WIyWlLk6GJQsqaUBKTNV-1" vertex="1">
          <mxGeometry x="-825" y="523" width="210" height="100" as="geometry" />
        </mxCell>
        <mxCell id="PBRTsVXi39Mgpiq4fNoz-29" value="" style="endArrow=classic;html=1;exitX=1;exitY=0.5;exitDx=0;exitDy=0;exitPerimeter=0;" parent="WIyWlLk6GJQsqaUBKTNV-1" source="PBRTsVXi39Mgpiq4fNoz-26" edge="1">
          <mxGeometry relative="1" as="geometry">
            <mxPoint x="-516" y="573" as="sourcePoint" />
            <mxPoint x="-560" y="573" as="targetPoint" />
          </mxGeometry>
        </mxCell>
        <mxCell id="PBRTsVXi39Mgpiq4fNoz-30" value="NOT" style="edgeLabel;resizable=0;html=1;align=center;verticalAlign=middle;" parent="PBRTsVXi39Mgpiq4fNoz-29" connectable="0" vertex="1">
          <mxGeometry relative="1" as="geometry" />
        </mxCell>
        <mxCell id="PBRTsVXi39Mgpiq4fNoz-32" value="" style="endArrow=classic;html=1;exitX=0.5;exitY=1;exitDx=0;exitDy=0;exitPerimeter=0;" parent="WIyWlLk6GJQsqaUBKTNV-1" edge="1">
          <mxGeometry relative="1" as="geometry">
            <mxPoint x="-720" y="623" as="sourcePoint" />
            <mxPoint x="-720" y="693" as="targetPoint" />
          </mxGeometry>
        </mxCell>
        <mxCell id="PBRTsVXi39Mgpiq4fNoz-33" value="YES" style="edgeLabel;resizable=0;html=1;align=center;verticalAlign=middle;" parent="PBRTsVXi39Mgpiq4fNoz-32" connectable="0" vertex="1">
          <mxGeometry relative="1" as="geometry" />
        </mxCell>
        <mxCell id="PBRTsVXi39Mgpiq4fNoz-34" style="edgeStyle=orthogonalEdgeStyle;rounded=0;orthogonalLoop=1;jettySize=auto;html=1;exitX=0.5;exitY=1;exitDx=0;exitDy=0;entryX=0.5;entryY=0;entryDx=0;entryDy=0;entryPerimeter=0;" parent="WIyWlLk6GJQsqaUBKTNV-1" source="PBRTsVXi39Mgpiq4fNoz-52" edge="1">
          <mxGeometry relative="1" as="geometry">
            <mxPoint x="-720" y="820" as="targetPoint" />
            <mxPoint x="-720" y="780" as="sourcePoint" />
          </mxGeometry>
        </mxCell>
        <mxCell id="PBRTsVXi39Mgpiq4fNoz-42" value="&lt;div&gt;EVALUATION &lt;br&gt;&lt;/div&gt;&lt;div&gt;END&lt;/div&gt;" style="rounded=1;whiteSpace=wrap;html=1;fontSize=12;glass=0;strokeWidth=1;shadow=0;fillColor=#FFCCCC;strokeColor=#FF9999;" parent="WIyWlLk6GJQsqaUBKTNV-1" vertex="1">
          <mxGeometry x="-560" y="553" width="120" height="40" as="geometry" />
        </mxCell>
        <mxCell id="PBRTsVXi39Mgpiq4fNoz-43" value="TA4" style="rounded=1;whiteSpace=wrap;html=1;fontSize=12;glass=0;strokeWidth=1;shadow=0;fillColor=#99FF99;strokeColor=#FFFFFF;" parent="WIyWlLk6GJQsqaUBKTNV-1" vertex="1">
          <mxGeometry x="-780" y="820" width="120" height="40" as="geometry" />
        </mxCell>
        <mxCell id="PBRTsVXi39Mgpiq4fNoz-45" value="1 WP ==&amp;gt; POS : 4" style="html=1;strokeWidth=2;shape=manualInput;whiteSpace=wrap;rounded=1;size=26;arcSize=11;" parent="WIyWlLk6GJQsqaUBKTNV-1" vertex="1">
          <mxGeometry x="-790" y="180" width="140" height="60" as="geometry" />
        </mxCell>
        <mxCell id="PBRTsVXi39Mgpiq4fNoz-49" style="edgeStyle=orthogonalEdgeStyle;rounded=0;orthogonalLoop=1;jettySize=auto;html=1;exitX=0.5;exitY=1;exitDx=0;exitDy=0;entryX=0.5;entryY=0;entryDx=0;entryDy=0;" parent="WIyWlLk6GJQsqaUBKTNV-1" source="PBRTsVXi39Mgpiq4fNoz-47" target="PBRTsVXi39Mgpiq4fNoz-48" edge="1">
          <mxGeometry relative="1" as="geometry" />
        </mxCell>
        <mxCell id="PBRTsVXi39Mgpiq4fNoz-47" value="1 WP ==&amp;gt; POS : 2" style="shape=process;whiteSpace=wrap;html=1;backgroundOutline=1;fillColor=#FFE599;" parent="WIyWlLk6GJQsqaUBKTNV-1" vertex="1">
          <mxGeometry x="-785" y="338" width="130" height="60" as="geometry" />
        </mxCell>
        <mxCell id="PBRTsVXi39Mgpiq4fNoz-48" value="INITIAL POSITION" style="shape=process;whiteSpace=wrap;html=1;backgroundOutline=1;fillColor=#FFE599;" parent="WIyWlLk6GJQsqaUBKTNV-1" vertex="1">
          <mxGeometry x="-785" y="429" width="130" height="60" as="geometry" />
        </mxCell>
        <mxCell id="PBRTsVXi39Mgpiq4fNoz-50" value="L2 : ON" style="strokeWidth=2;html=1;shape=mxgraph.flowchart.display;whiteSpace=wrap;fillColor=#E1D5E7;" parent="WIyWlLk6GJQsqaUBKTNV-1" vertex="1">
          <mxGeometry x="-580" y="470" width="100" height="60" as="geometry" />
        </mxCell>
        <mxCell id="PBRTsVXi39Mgpiq4fNoz-51" value="" style="endArrow=none;dashed=1;html=1;entryX=0;entryY=0.5;entryDx=0;entryDy=0;entryPerimeter=0;" parent="WIyWlLk6GJQsqaUBKTNV-1" target="PBRTsVXi39Mgpiq4fNoz-50" edge="1">
          <mxGeometry width="50" height="50" relative="1" as="geometry">
            <mxPoint x="-720" y="500" as="sourcePoint" />
            <mxPoint x="-550" y="390" as="targetPoint" />
          </mxGeometry>
        </mxCell>
        <mxCell id="PBRTsVXi39Mgpiq4fNoz-52" value="B3 = AUTO (0)" style="html=1;strokeWidth=2;shape=manualInput;whiteSpace=wrap;rounded=1;size=26;arcSize=11;" parent="WIyWlLk6GJQsqaUBKTNV-1" vertex="1">
          <mxGeometry x="-790" y="680" width="140" height="60" as="geometry" />
        </mxCell>
        <mxCell id="PBRTsVXi39Mgpiq4fNoz-53" value="L2 : OFF" style="strokeWidth=2;html=1;shape=mxgraph.flowchart.display;whiteSpace=wrap;fillColor=#E1D5E7;" parent="WIyWlLk6GJQsqaUBKTNV-1" vertex="1">
          <mxGeometry x="-590" y="750" width="100" height="60" as="geometry" />
        </mxCell>
        <mxCell id="PBRTsVXi39Mgpiq4fNoz-54" value="L1 : ON" style="strokeWidth=2;html=1;shape=mxgraph.flowchart.display;whiteSpace=wrap;fillColor=#E1D5E7;" parent="WIyWlLk6GJQsqaUBKTNV-1" vertex="1">
          <mxGeometry x="-590" y="810" width="100" height="60" as="geometry" />
        </mxCell>
        <mxCell id="PBRTsVXi39Mgpiq4fNoz-55" value="L7 : ON **" style="strokeWidth=2;html=1;shape=mxgraph.flowchart.display;whiteSpace=wrap;fillColor=#E1D5E7;" parent="WIyWlLk6GJQsqaUBKTNV-1" vertex="1">
          <mxGeometry x="-590" y="870" width="100" height="60" as="geometry" />
        </mxCell>
        <mxCell id="PBRTsVXi39Mgpiq4fNoz-56" value="" style="endArrow=none;dashed=1;html=1;entryX=-0.036;entryY=0.498;entryDx=0;entryDy=0;entryPerimeter=0;" parent="WIyWlLk6GJQsqaUBKTNV-1" target="PBRTsVXi39Mgpiq4fNoz-53" edge="1">
          <mxGeometry width="50" height="50" relative="1" as="geometry">
            <mxPoint x="-720" y="780" as="sourcePoint" />
            <mxPoint x="-610" y="770" as="targetPoint" />
          </mxGeometry>
        </mxCell>
        <mxCell id="PBRTsVXi39Mgpiq4fNoz-58" value="" style="endArrow=none;dashed=1;html=1;entryX=0;entryY=0.5;entryDx=0;entryDy=0;entryPerimeter=0;" parent="WIyWlLk6GJQsqaUBKTNV-1" target="PBRTsVXi39Mgpiq4fNoz-54" edge="1">
          <mxGeometry width="50" height="50" relative="1" as="geometry">
            <mxPoint x="-640" y="780" as="sourcePoint" />
            <mxPoint x="-550" y="900" as="targetPoint" />
          </mxGeometry>
        </mxCell>
        <mxCell id="PBRTsVXi39Mgpiq4fNoz-59" value="" style="endArrow=none;dashed=1;html=1;entryX=0;entryY=0.5;entryDx=0;entryDy=0;entryPerimeter=0;" parent="WIyWlLk6GJQsqaUBKTNV-1" target="PBRTsVXi39Mgpiq4fNoz-55" edge="1">
          <mxGeometry width="50" height="50" relative="1" as="geometry">
            <mxPoint x="-640" y="780" as="sourcePoint" />
            <mxPoint x="-600" y="900" as="targetPoint" />
          </mxGeometry>
        </mxCell>
        <mxCell id="PBRTsVXi39Mgpiq4fNoz-62" style="edgeStyle=orthogonalEdgeStyle;rounded=0;orthogonalLoop=1;jettySize=auto;html=1;exitX=0.5;exitY=1;exitDx=0;exitDy=0;entryX=0.5;entryY=0;entryDx=0;entryDy=0;" parent="WIyWlLk6GJQsqaUBKTNV-1" source="PBRTsVXi39Mgpiq4fNoz-60" target="PBRTsVXi39Mgpiq4fNoz-61" edge="1">
          <mxGeometry relative="1" as="geometry" />
        </mxCell>
        <mxCell id="PBRTsVXi39Mgpiq4fNoz-60" value="&lt;div&gt;TA4&lt;/div&gt;" style="rounded=1;whiteSpace=wrap;html=1;fontSize=12;glass=0;strokeWidth=1;shadow=0;fillColor=#99FF99;" parent="WIyWlLk6GJQsqaUBKTNV-1" vertex="1">
          <mxGeometry x="-1205" y="1.5" width="120" height="40" as="geometry" />
        </mxCell>
        <mxCell id="PBRTsVXi39Mgpiq4fNoz-64" style="edgeStyle=orthogonalEdgeStyle;rounded=0;orthogonalLoop=1;jettySize=auto;html=1;exitX=0.5;exitY=1;exitDx=0;exitDy=0;entryX=0.5;entryY=0;entryDx=0;entryDy=0;entryPerimeter=0;" parent="WIyWlLk6GJQsqaUBKTNV-1" source="PBRTsVXi39Mgpiq4fNoz-61" target="PBRTsVXi39Mgpiq4fNoz-63" edge="1">
          <mxGeometry relative="1" as="geometry" />
        </mxCell>
        <mxCell id="PBRTsVXi39Mgpiq4fNoz-61" value="INITIAL POSITION" style="shape=process;whiteSpace=wrap;html=1;backgroundOutline=1;fillColor=#FFE599;" parent="WIyWlLk6GJQsqaUBKTNV-1" vertex="1">
          <mxGeometry x="-1210" y="70.5" width="130" height="60" as="geometry" />
        </mxCell>
        <mxCell id="PBRTsVXi39Mgpiq4fNoz-63" value="INITIAL POSITION?" style="strokeWidth=2;html=1;shape=mxgraph.flowchart.decision;whiteSpace=wrap;fillColor=#CCE5FF;" parent="WIyWlLk6GJQsqaUBKTNV-1" vertex="1">
          <mxGeometry x="-1250" y="160.5" width="210" height="100" as="geometry" />
        </mxCell>
        <mxCell id="PBRTsVXi39Mgpiq4fNoz-65" value="L1 : ON" style="strokeWidth=2;html=1;shape=mxgraph.flowchart.display;whiteSpace=wrap;fillColor=#E1D5E7;" parent="WIyWlLk6GJQsqaUBKTNV-1" vertex="1">
          <mxGeometry x="-1015" y="20.5" width="100" height="60" as="geometry" />
        </mxCell>
        <mxCell id="PBRTsVXi39Mgpiq4fNoz-66" value="L7 : ON **" style="strokeWidth=2;html=1;shape=mxgraph.flowchart.display;whiteSpace=wrap;fillColor=#E1D5E7;" parent="WIyWlLk6GJQsqaUBKTNV-1" vertex="1">
          <mxGeometry x="-1015" y="80.5" width="100" height="60" as="geometry" />
        </mxCell>
        <mxCell id="PBRTsVXi39Mgpiq4fNoz-67" value="" style="endArrow=none;dashed=1;html=1;entryX=-0.036;entryY=0.498;entryDx=0;entryDy=0;entryPerimeter=0;" parent="WIyWlLk6GJQsqaUBKTNV-1" target="PBRTsVXi39Mgpiq4fNoz-65" edge="1">
          <mxGeometry width="50" height="50" relative="1" as="geometry">
            <mxPoint x="-1145" y="50.5" as="sourcePoint" />
            <mxPoint x="-1035" y="40.5" as="targetPoint" />
          </mxGeometry>
        </mxCell>
        <mxCell id="PBRTsVXi39Mgpiq4fNoz-68" value="" style="endArrow=none;dashed=1;html=1;entryX=0;entryY=0.5;entryDx=0;entryDy=0;entryPerimeter=0;" parent="WIyWlLk6GJQsqaUBKTNV-1" target="PBRTsVXi39Mgpiq4fNoz-66" edge="1">
          <mxGeometry width="50" height="50" relative="1" as="geometry">
            <mxPoint x="-1065" y="50.5" as="sourcePoint" />
            <mxPoint x="-975" y="170.5" as="targetPoint" />
          </mxGeometry>
        </mxCell>
        <mxCell id="PBRTsVXi39Mgpiq4fNoz-69" value="" style="endArrow=classic;html=1;exitX=1;exitY=0.5;exitDx=0;exitDy=0;exitPerimeter=0;" parent="WIyWlLk6GJQsqaUBKTNV-1" edge="1">
          <mxGeometry relative="1" as="geometry">
            <mxPoint x="-1040" y="210.5" as="sourcePoint" />
            <mxPoint x="-985" y="210.5" as="targetPoint" />
          </mxGeometry>
        </mxCell>
        <mxCell id="PBRTsVXi39Mgpiq4fNoz-70" value="NOT" style="edgeLabel;resizable=0;html=1;align=center;verticalAlign=middle;" parent="PBRTsVXi39Mgpiq4fNoz-69" connectable="0" vertex="1">
          <mxGeometry relative="1" as="geometry" />
        </mxCell>
        <mxCell id="PBRTsVXi39Mgpiq4fNoz-71" value="&lt;div&gt;EVALUATION &lt;br&gt;&lt;/div&gt;&lt;div&gt;END&lt;/div&gt;" style="rounded=1;whiteSpace=wrap;html=1;fontSize=12;glass=0;strokeWidth=1;shadow=0;fillColor=#FFCCCC;strokeColor=#FF9999;" parent="WIyWlLk6GJQsqaUBKTNV-1" vertex="1">
          <mxGeometry x="-985" y="190.5" width="120" height="40" as="geometry" />
        </mxCell>
        <mxCell id="PBRTsVXi39Mgpiq4fNoz-74" value="" style="endArrow=classic;html=1;exitX=0.5;exitY=1;exitDx=0;exitDy=0;exitPerimeter=0;" parent="WIyWlLk6GJQsqaUBKTNV-1" edge="1">
          <mxGeometry relative="1" as="geometry">
            <mxPoint x="-1145" y="260" as="sourcePoint" />
            <mxPoint x="-1145" y="330" as="targetPoint" />
          </mxGeometry>
        </mxCell>
        <mxCell id="PBRTsVXi39Mgpiq4fNoz-75" value="YES" style="edgeLabel;resizable=0;html=1;align=center;verticalAlign=middle;" parent="PBRTsVXi39Mgpiq4fNoz-74" connectable="0" vertex="1">
          <mxGeometry relative="1" as="geometry" />
        </mxCell>
        <mxCell id="PBRTsVXi39Mgpiq4fNoz-78" style="edgeStyle=orthogonalEdgeStyle;rounded=0;orthogonalLoop=1;jettySize=auto;html=1;exitX=0.5;exitY=1;exitDx=0;exitDy=0;entryX=0.5;entryY=0;entryDx=0;entryDy=0;" parent="WIyWlLk6GJQsqaUBKTNV-1" source="PBRTsVXi39Mgpiq4fNoz-76" target="PBRTsVXi39Mgpiq4fNoz-77" edge="1">
          <mxGeometry relative="1" as="geometry" />
        </mxCell>
        <mxCell id="PBRTsVXi39Mgpiq4fNoz-76" value="&amp;gt;1 WP ==&amp;gt;POS : 4" style="html=1;strokeWidth=2;shape=manualInput;whiteSpace=wrap;rounded=1;size=26;arcSize=11;" parent="WIyWlLk6GJQsqaUBKTNV-1" vertex="1">
          <mxGeometry x="-1215" y="317" width="140" height="60" as="geometry" />
        </mxCell>
        <mxCell id="PBRTsVXi39Mgpiq4fNoz-80" style="edgeStyle=orthogonalEdgeStyle;rounded=0;orthogonalLoop=1;jettySize=auto;html=1;exitX=0.5;exitY=1;exitDx=0;exitDy=0;entryX=0.495;entryY=0.211;entryDx=0;entryDy=0;entryPerimeter=0;" parent="WIyWlLk6GJQsqaUBKTNV-1" source="PBRTsVXi39Mgpiq4fNoz-77" target="PBRTsVXi39Mgpiq4fNoz-79" edge="1">
          <mxGeometry relative="1" as="geometry" />
        </mxCell>
        <mxCell id="PBRTsVXi39Mgpiq4fNoz-77" value="&lt;div&gt;TA4 : A&lt;br&gt;&lt;/div&gt;" style="rounded=1;whiteSpace=wrap;html=1;fontSize=12;glass=0;strokeWidth=1;shadow=0;fillColor=#99FF99;" parent="WIyWlLk6GJQsqaUBKTNV-1" vertex="1">
          <mxGeometry x="-1205" y="410" width="120" height="40" as="geometry" />
        </mxCell>
        <mxCell id="PBRTsVXi39Mgpiq4fNoz-85" style="edgeStyle=orthogonalEdgeStyle;rounded=0;orthogonalLoop=1;jettySize=auto;html=1;exitX=0.5;exitY=1;exitDx=0;exitDy=0;entryX=0.507;entryY=0.21;entryDx=0;entryDy=0;entryPerimeter=0;" parent="WIyWlLk6GJQsqaUBKTNV-1" source="PBRTsVXi39Mgpiq4fNoz-79" target="PBRTsVXi39Mgpiq4fNoz-84" edge="1">
          <mxGeometry relative="1" as="geometry" />
        </mxCell>
        <mxCell id="PBRTsVXi39Mgpiq4fNoz-79" value="B5(WP1) XOR B6 (WP2/WP3)" style="html=1;strokeWidth=2;shape=manualInput;whiteSpace=wrap;rounded=1;size=26;arcSize=11;" parent="WIyWlLk6GJQsqaUBKTNV-1" vertex="1">
          <mxGeometry x="-1215" y="480" width="140" height="80" as="geometry" />
        </mxCell>
        <mxCell id="PBRTsVXi39Mgpiq4fNoz-81" value="L5 XOR L6 : ON" style="strokeWidth=2;html=1;shape=mxgraph.flowchart.display;whiteSpace=wrap;fillColor=#E1D5E7;" parent="WIyWlLk6GJQsqaUBKTNV-1" vertex="1">
          <mxGeometry x="-1015" y="543" width="100" height="60" as="geometry" />
        </mxCell>
        <mxCell id="PBRTsVXi39Mgpiq4fNoz-82" value="" style="endArrow=none;dashed=1;html=1;entryX=-0.036;entryY=0.498;entryDx=0;entryDy=0;entryPerimeter=0;" parent="WIyWlLk6GJQsqaUBKTNV-1" target="PBRTsVXi39Mgpiq4fNoz-81" edge="1">
          <mxGeometry width="50" height="50" relative="1" as="geometry">
            <mxPoint x="-1145" y="573" as="sourcePoint" />
            <mxPoint x="-1035" y="563" as="targetPoint" />
          </mxGeometry>
        </mxCell>
        <mxCell id="PBRTsVXi39Mgpiq4fNoz-88" style="edgeStyle=orthogonalEdgeStyle;rounded=0;orthogonalLoop=1;jettySize=auto;html=1;exitX=0.5;exitY=1;exitDx=0;exitDy=0;entryX=0.5;entryY=0;entryDx=0;entryDy=0;entryPerimeter=0;" parent="WIyWlLk6GJQsqaUBKTNV-1" source="PBRTsVXi39Mgpiq4fNoz-84" target="PBRTsVXi39Mgpiq4fNoz-87" edge="1">
          <mxGeometry relative="1" as="geometry" />
        </mxCell>
        <mxCell id="PBRTsVXi39Mgpiq4fNoz-84" value="B1" style="html=1;strokeWidth=2;shape=manualInput;whiteSpace=wrap;rounded=1;size=26;arcSize=11;" parent="WIyWlLk6GJQsqaUBKTNV-1" vertex="1">
          <mxGeometry x="-1215" y="585" width="140" height="60" as="geometry" />
        </mxCell>
        <mxCell id="PBRTsVXi39Mgpiq4fNoz-86" value="L1 : OFF" style="strokeWidth=2;html=1;shape=mxgraph.flowchart.display;whiteSpace=wrap;fillColor=#E1D5E7;" parent="WIyWlLk6GJQsqaUBKTNV-1" vertex="1">
          <mxGeometry x="-1015" y="630" width="100" height="60" as="geometry" />
        </mxCell>
        <mxCell id="PBRTsVXi39Mgpiq4fNoz-87" value="Empty Magazine?" style="strokeWidth=2;html=1;shape=mxgraph.flowchart.decision;whiteSpace=wrap;fillColor=#CCE5FF;" parent="WIyWlLk6GJQsqaUBKTNV-1" vertex="1">
          <mxGeometry x="-1250" y="690" width="210" height="100" as="geometry" />
        </mxCell>
        <mxCell id="PBRTsVXi39Mgpiq4fNoz-90" value="" style="endArrow=none;dashed=1;html=1;entryX=-0.036;entryY=0.498;entryDx=0;entryDy=0;entryPerimeter=0;" parent="WIyWlLk6GJQsqaUBKTNV-1" edge="1">
          <mxGeometry width="50" height="50" relative="1" as="geometry">
            <mxPoint x="-1145" y="660.12" as="sourcePoint" />
            <mxPoint x="-1018.5999999999999" y="660.0000000000001" as="targetPoint" />
          </mxGeometry>
        </mxCell>
        <mxCell id="PBRTsVXi39Mgpiq4fNoz-91" value="" style="endArrow=classic;html=1;exitX=0.5;exitY=1;exitDx=0;exitDy=0;exitPerimeter=0;" parent="WIyWlLk6GJQsqaUBKTNV-1" edge="1">
          <mxGeometry relative="1" as="geometry">
            <mxPoint x="-1145.42" y="790" as="sourcePoint" />
            <mxPoint x="-1145.42" y="860" as="targetPoint" />
          </mxGeometry>
        </mxCell>
        <mxCell id="PBRTsVXi39Mgpiq4fNoz-92" value="NO" style="edgeLabel;resizable=0;html=1;align=center;verticalAlign=middle;" parent="PBRTsVXi39Mgpiq4fNoz-91" connectable="0" vertex="1">
          <mxGeometry relative="1" as="geometry" />
        </mxCell>
        <mxCell id="PBRTsVXi39Mgpiq4fNoz-93" value="" style="endArrow=classic;html=1;exitX=1;exitY=0.5;exitDx=0;exitDy=0;exitPerimeter=0;" parent="WIyWlLk6GJQsqaUBKTNV-1" edge="1">
          <mxGeometry relative="1" as="geometry">
            <mxPoint x="-1040" y="739.5800000000002" as="sourcePoint" />
            <mxPoint x="-985" y="739.5800000000002" as="targetPoint" />
          </mxGeometry>
        </mxCell>
        <mxCell id="PBRTsVXi39Mgpiq4fNoz-94" value="NOT" style="edgeLabel;resizable=0;html=1;align=center;verticalAlign=middle;" parent="PBRTsVXi39Mgpiq4fNoz-93" connectable="0" vertex="1">
          <mxGeometry relative="1" as="geometry" />
        </mxCell>
        <mxCell id="PBRTsVXi39Mgpiq4fNoz-95" value="TA4 : D" style="rounded=1;whiteSpace=wrap;html=1;fontSize=12;glass=0;strokeWidth=1;shadow=0;fillColor=#99FF99;strokeColor=#FFFFFF;" parent="WIyWlLk6GJQsqaUBKTNV-1" vertex="1">
          <mxGeometry x="-985" y="720" width="120" height="40" as="geometry" />
        </mxCell>
        <mxCell id="PBRTsVXi39Mgpiq4fNoz-97" value="" style="endArrow=none;html=1;entryX=0.5;entryY=1;entryDx=0;entryDy=0;" parent="WIyWlLk6GJQsqaUBKTNV-1" target="PBRTsVXi39Mgpiq4fNoz-95" edge="1">
          <mxGeometry width="50" height="50" relative="1" as="geometry">
            <mxPoint x="-925" y="840" as="sourcePoint" />
            <mxPoint x="-980" y="850" as="targetPoint" />
          </mxGeometry>
        </mxCell>
        <mxCell id="PBRTsVXi39Mgpiq4fNoz-98" value="" style="endArrow=none;html=1;" parent="WIyWlLk6GJQsqaUBKTNV-1" edge="1">
          <mxGeometry width="50" height="50" relative="1" as="geometry">
            <mxPoint x="-1150" y="840" as="sourcePoint" />
            <mxPoint x="-920" y="840" as="targetPoint" />
          </mxGeometry>
        </mxCell>
        <mxCell id="PBRTsVXi39Mgpiq4fNoz-151" style="edgeStyle=orthogonalEdgeStyle;rounded=0;orthogonalLoop=1;jettySize=auto;html=1;exitX=0.5;exitY=1;exitDx=0;exitDy=0;entryX=0.526;entryY=-0.012;entryDx=0;entryDy=0;entryPerimeter=0;" parent="WIyWlLk6GJQsqaUBKTNV-1" source="PBRTsVXi39Mgpiq4fNoz-100" target="PBRTsVXi39Mgpiq4fNoz-123" edge="1">
          <mxGeometry relative="1" as="geometry" />
        </mxCell>
        <mxCell id="PBRTsVXi39Mgpiq4fNoz-100" value="1 WP ==&amp;gt; POS : 4" style="shape=process;whiteSpace=wrap;html=1;backgroundOutline=1;fillColor=#FFE599;" parent="WIyWlLk6GJQsqaUBKTNV-1" vertex="1">
          <mxGeometry x="-1210" y="860" width="130" height="60" as="geometry" />
        </mxCell>
        <mxCell id="PBRTsVXi39Mgpiq4fNoz-111" style="edgeStyle=orthogonalEdgeStyle;rounded=0;orthogonalLoop=1;jettySize=auto;html=1;exitX=0.5;exitY=1;exitDx=0;exitDy=0;" parent="WIyWlLk6GJQsqaUBKTNV-1" source="PBRTsVXi39Mgpiq4fNoz-102" target="PBRTsVXi39Mgpiq4fNoz-110" edge="1">
          <mxGeometry relative="1" as="geometry" />
        </mxCell>
        <mxCell id="PBRTsVXi39Mgpiq4fNoz-102" value="TA4 : D" style="rounded=1;whiteSpace=wrap;html=1;fontSize=12;glass=0;strokeWidth=1;shadow=0;fillColor=#99FF99;strokeColor=#00CC66;" parent="WIyWlLk6GJQsqaUBKTNV-1" vertex="1">
          <mxGeometry x="-1580" y="150" width="120" height="40" as="geometry" />
        </mxCell>
        <mxCell id="PBRTsVXi39Mgpiq4fNoz-103" value="L1 : ON" style="strokeWidth=2;html=1;shape=mxgraph.flowchart.display;whiteSpace=wrap;fillColor=#E1D5E7;" parent="WIyWlLk6GJQsqaUBKTNV-1" vertex="1">
          <mxGeometry x="-1390" y="190" width="100" height="60" as="geometry" />
        </mxCell>
        <mxCell id="PBRTsVXi39Mgpiq4fNoz-104" value="L8 : 2HZ **" style="strokeWidth=2;html=1;shape=mxgraph.flowchart.display;whiteSpace=wrap;fillColor=#E1D5E7;" parent="WIyWlLk6GJQsqaUBKTNV-1" vertex="1">
          <mxGeometry x="-1390" y="250" width="100" height="60" as="geometry" />
        </mxCell>
        <mxCell id="PBRTsVXi39Mgpiq4fNoz-105" value="L10 : ON" style="strokeWidth=2;html=1;shape=mxgraph.flowchart.display;whiteSpace=wrap;fillColor=#E1D5E7;" parent="WIyWlLk6GJQsqaUBKTNV-1" vertex="1">
          <mxGeometry x="-1390" y="310" width="100" height="60" as="geometry" />
        </mxCell>
        <mxCell id="PBRTsVXi39Mgpiq4fNoz-106" value="" style="endArrow=none;dashed=1;html=1;entryX=-0.036;entryY=0.498;entryDx=0;entryDy=0;entryPerimeter=0;" parent="WIyWlLk6GJQsqaUBKTNV-1" target="PBRTsVXi39Mgpiq4fNoz-103" edge="1">
          <mxGeometry width="50" height="50" relative="1" as="geometry">
            <mxPoint x="-1520" y="220" as="sourcePoint" />
            <mxPoint x="-1410" y="210" as="targetPoint" />
          </mxGeometry>
        </mxCell>
        <mxCell id="PBRTsVXi39Mgpiq4fNoz-107" value="" style="endArrow=none;dashed=1;html=1;entryX=0;entryY=0.5;entryDx=0;entryDy=0;entryPerimeter=0;" parent="WIyWlLk6GJQsqaUBKTNV-1" target="PBRTsVXi39Mgpiq4fNoz-104" edge="1">
          <mxGeometry width="50" height="50" relative="1" as="geometry">
            <mxPoint x="-1440" y="220" as="sourcePoint" />
            <mxPoint x="-1350" y="340" as="targetPoint" />
          </mxGeometry>
        </mxCell>
        <mxCell id="PBRTsVXi39Mgpiq4fNoz-108" value="" style="endArrow=none;dashed=1;html=1;entryX=0;entryY=0.5;entryDx=0;entryDy=0;entryPerimeter=0;" parent="WIyWlLk6GJQsqaUBKTNV-1" target="PBRTsVXi39Mgpiq4fNoz-105" edge="1">
          <mxGeometry width="50" height="50" relative="1" as="geometry">
            <mxPoint x="-1440" y="220" as="sourcePoint" />
            <mxPoint x="-1400" y="340" as="targetPoint" />
          </mxGeometry>
        </mxCell>
        <mxCell id="PBRTsVXi39Mgpiq4fNoz-113" style="edgeStyle=orthogonalEdgeStyle;rounded=0;orthogonalLoop=1;jettySize=auto;html=1;exitX=0.5;exitY=1;exitDx=0;exitDy=0;entryX=0.5;entryY=0;entryDx=0;entryDy=0;" parent="WIyWlLk6GJQsqaUBKTNV-1" source="PBRTsVXi39Mgpiq4fNoz-110" target="PBRTsVXi39Mgpiq4fNoz-112" edge="1">
          <mxGeometry relative="1" as="geometry" />
        </mxCell>
        <mxCell id="PBRTsVXi39Mgpiq4fNoz-110" value="1 WP ==&amp;gt;POS : 5" style="html=1;strokeWidth=2;shape=manualInput;whiteSpace=wrap;rounded=1;size=26;arcSize=11;" parent="WIyWlLk6GJQsqaUBKTNV-1" vertex="1">
          <mxGeometry x="-1590" y="250" width="140" height="60" as="geometry" />
        </mxCell>
        <mxCell id="PBRTsVXi39Mgpiq4fNoz-121" style="edgeStyle=orthogonalEdgeStyle;rounded=0;orthogonalLoop=1;jettySize=auto;html=1;exitX=0.5;exitY=1;exitDx=0;exitDy=0;entryX=0.5;entryY=0;entryDx=0;entryDy=0;" parent="WIyWlLk6GJQsqaUBKTNV-1" source="PBRTsVXi39Mgpiq4fNoz-112" target="PBRTsVXi39Mgpiq4fNoz-120" edge="1">
          <mxGeometry relative="1" as="geometry" />
        </mxCell>
        <mxCell id="PBRTsVXi39Mgpiq4fNoz-112" value="B1" style="html=1;strokeWidth=2;shape=manualInput;whiteSpace=wrap;rounded=1;size=26;arcSize=11;" parent="WIyWlLk6GJQsqaUBKTNV-1" vertex="1">
          <mxGeometry x="-1590" y="340" width="140" height="60" as="geometry" />
        </mxCell>
        <mxCell id="PBRTsVXi39Mgpiq4fNoz-114" value="L1 : OFF" style="strokeWidth=2;html=1;shape=mxgraph.flowchart.display;whiteSpace=wrap;fillColor=#E1D5E7;" parent="WIyWlLk6GJQsqaUBKTNV-1" vertex="1">
          <mxGeometry x="-1390" y="405" width="100" height="60" as="geometry" />
        </mxCell>
        <mxCell id="PBRTsVXi39Mgpiq4fNoz-115" value="L7 : ON **" style="strokeWidth=2;html=1;shape=mxgraph.flowchart.display;whiteSpace=wrap;fillColor=#E1D5E7;" parent="WIyWlLk6GJQsqaUBKTNV-1" vertex="1">
          <mxGeometry x="-1390" y="465" width="100" height="60" as="geometry" />
        </mxCell>
        <mxCell id="PBRTsVXi39Mgpiq4fNoz-116" value="L10 : OFF" style="strokeWidth=2;html=1;shape=mxgraph.flowchart.display;whiteSpace=wrap;fillColor=#E1D5E7;" parent="WIyWlLk6GJQsqaUBKTNV-1" vertex="1">
          <mxGeometry x="-1390" y="525" width="100" height="60" as="geometry" />
        </mxCell>
        <mxCell id="PBRTsVXi39Mgpiq4fNoz-117" value="" style="endArrow=none;dashed=1;html=1;entryX=-0.036;entryY=0.498;entryDx=0;entryDy=0;entryPerimeter=0;" parent="WIyWlLk6GJQsqaUBKTNV-1" target="PBRTsVXi39Mgpiq4fNoz-114" edge="1">
          <mxGeometry width="50" height="50" relative="1" as="geometry">
            <mxPoint x="-1520" y="435.0000000000001" as="sourcePoint" />
            <mxPoint x="-1410" y="425" as="targetPoint" />
          </mxGeometry>
        </mxCell>
        <mxCell id="PBRTsVXi39Mgpiq4fNoz-118" value="" style="endArrow=none;dashed=1;html=1;entryX=0;entryY=0.5;entryDx=0;entryDy=0;entryPerimeter=0;" parent="WIyWlLk6GJQsqaUBKTNV-1" target="PBRTsVXi39Mgpiq4fNoz-115" edge="1">
          <mxGeometry width="50" height="50" relative="1" as="geometry">
            <mxPoint x="-1440" y="435.0000000000001" as="sourcePoint" />
            <mxPoint x="-1350" y="555" as="targetPoint" />
          </mxGeometry>
        </mxCell>
        <mxCell id="PBRTsVXi39Mgpiq4fNoz-119" value="" style="endArrow=none;dashed=1;html=1;entryX=0;entryY=0.5;entryDx=0;entryDy=0;entryPerimeter=0;" parent="WIyWlLk6GJQsqaUBKTNV-1" target="PBRTsVXi39Mgpiq4fNoz-116" edge="1">
          <mxGeometry width="50" height="50" relative="1" as="geometry">
            <mxPoint x="-1440" y="435.0000000000001" as="sourcePoint" />
            <mxPoint x="-1400" y="555" as="targetPoint" />
          </mxGeometry>
        </mxCell>
        <mxCell id="PBRTsVXi39Mgpiq4fNoz-120" value="CONTINUE" style="rounded=1;whiteSpace=wrap;html=1;fontSize=12;glass=0;strokeWidth=1;shadow=0;fillColor=#99FF99;strokeColor=#FFFFFF;" parent="WIyWlLk6GJQsqaUBKTNV-1" vertex="1">
          <mxGeometry x="-1580" y="460" width="120" height="40" as="geometry" />
        </mxCell>
        <mxCell id="PBRTsVXi39Mgpiq4fNoz-155" style="edgeStyle=orthogonalEdgeStyle;rounded=0;orthogonalLoop=1;jettySize=auto;html=1;" parent="WIyWlLk6GJQsqaUBKTNV-1" source="PBRTsVXi39Mgpiq4fNoz-122" target="PBRTsVXi39Mgpiq4fNoz-154" edge="1">
          <mxGeometry relative="1" as="geometry" />
        </mxCell>
        <mxCell id="PBRTsVXi39Mgpiq4fNoz-122" value="" style="shape=table;html=1;whiteSpace=wrap;startSize=0;container=1;collapsible=0;childLayout=tableLayout;" parent="WIyWlLk6GJQsqaUBKTNV-1" vertex="1">
          <mxGeometry x="-1355" y="1210" width="220" height="310" as="geometry" />
        </mxCell>
        <mxCell id="PBRTsVXi39Mgpiq4fNoz-123" value="" style="shape=partialRectangle;html=1;whiteSpace=wrap;collapsible=0;dropTarget=0;pointerEvents=0;fillColor=none;top=0;left=0;bottom=0;right=0;points=[[0,0.5],[1,0.5]];portConstraint=eastwest;" parent="PBRTsVXi39Mgpiq4fNoz-122" vertex="1">
          <mxGeometry width="220" height="44" as="geometry" />
        </mxCell>
        <mxCell id="PBRTsVXi39Mgpiq4fNoz-124" value="WP DETECTED" style="shape=partialRectangle;html=1;whiteSpace=wrap;connectable=0;overflow=hidden;fillColor=none;top=0;left=0;bottom=0;right=0;" parent="PBRTsVXi39Mgpiq4fNoz-123" vertex="1">
          <mxGeometry width="73" height="44" as="geometry" />
        </mxCell>
        <mxCell id="PBRTsVXi39Mgpiq4fNoz-125" value="&lt;div&gt;WP&lt;/div&gt;&lt;div&gt;SELECTED&lt;br&gt;&lt;/div&gt;" style="shape=partialRectangle;html=1;whiteSpace=wrap;connectable=0;overflow=hidden;fillColor=none;top=0;left=0;bottom=0;right=0;" parent="PBRTsVXi39Mgpiq4fNoz-123" vertex="1">
          <mxGeometry x="73" width="74" height="44" as="geometry" />
        </mxCell>
        <mxCell id="PBRTsVXi39Mgpiq4fNoz-126" value="Y =" style="shape=partialRectangle;html=1;whiteSpace=wrap;connectable=0;overflow=hidden;fillColor=none;top=0;left=0;bottom=0;right=0;" parent="PBRTsVXi39Mgpiq4fNoz-123" vertex="1">
          <mxGeometry x="147" width="73" height="44" as="geometry" />
        </mxCell>
        <mxCell id="PBRTsVXi39Mgpiq4fNoz-127" value="" style="shape=partialRectangle;html=1;whiteSpace=wrap;collapsible=0;dropTarget=0;pointerEvents=0;fillColor=none;top=0;left=0;bottom=0;right=0;points=[[0,0.5],[1,0.5]];portConstraint=eastwest;" parent="PBRTsVXi39Mgpiq4fNoz-122" vertex="1">
          <mxGeometry y="44" width="220" height="45" as="geometry" />
        </mxCell>
        <mxCell id="PBRTsVXi39Mgpiq4fNoz-128" value="WP1" style="shape=partialRectangle;html=1;whiteSpace=wrap;connectable=0;overflow=hidden;fillColor=none;top=0;left=0;bottom=0;right=0;" parent="PBRTsVXi39Mgpiq4fNoz-127" vertex="1">
          <mxGeometry width="73" height="45" as="geometry" />
        </mxCell>
        <mxCell id="PBRTsVXi39Mgpiq4fNoz-129" value="WP1" style="shape=partialRectangle;html=1;whiteSpace=wrap;connectable=0;overflow=hidden;fillColor=none;top=0;left=0;bottom=0;right=0;" parent="PBRTsVXi39Mgpiq4fNoz-127" vertex="1">
          <mxGeometry x="73" width="74" height="45" as="geometry" />
        </mxCell>
        <mxCell id="PBRTsVXi39Mgpiq4fNoz-130" value="1" style="shape=partialRectangle;html=1;whiteSpace=wrap;connectable=0;overflow=hidden;fillColor=none;top=0;left=0;bottom=0;right=0;" parent="PBRTsVXi39Mgpiq4fNoz-127" vertex="1">
          <mxGeometry x="147" width="73" height="45" as="geometry" />
        </mxCell>
        <mxCell id="PBRTsVXi39Mgpiq4fNoz-131" value="" style="shape=partialRectangle;html=1;whiteSpace=wrap;collapsible=0;dropTarget=0;pointerEvents=0;fillColor=none;top=0;left=0;bottom=0;right=0;points=[[0,0.5],[1,0.5]];portConstraint=eastwest;" parent="PBRTsVXi39Mgpiq4fNoz-122" vertex="1">
          <mxGeometry y="89" width="220" height="44" as="geometry" />
        </mxCell>
        <mxCell id="PBRTsVXi39Mgpiq4fNoz-132" value="WP1" style="shape=partialRectangle;html=1;whiteSpace=wrap;connectable=0;overflow=hidden;fillColor=none;top=0;left=0;bottom=0;right=0;" parent="PBRTsVXi39Mgpiq4fNoz-131" vertex="1">
          <mxGeometry width="73" height="44" as="geometry" />
        </mxCell>
        <mxCell id="PBRTsVXi39Mgpiq4fNoz-133" value="WP2/WP3" style="shape=partialRectangle;html=1;whiteSpace=wrap;connectable=0;overflow=hidden;fillColor=none;top=0;left=0;bottom=0;right=0;" parent="PBRTsVXi39Mgpiq4fNoz-131" vertex="1">
          <mxGeometry x="73" width="74" height="44" as="geometry" />
        </mxCell>
        <mxCell id="PBRTsVXi39Mgpiq4fNoz-134" value="2" style="shape=partialRectangle;html=1;whiteSpace=wrap;connectable=0;overflow=hidden;fillColor=none;top=0;left=0;bottom=0;right=0;" parent="PBRTsVXi39Mgpiq4fNoz-131" vertex="1">
          <mxGeometry x="147" width="73" height="44" as="geometry" />
        </mxCell>
        <mxCell id="PBRTsVXi39Mgpiq4fNoz-135" value="" style="shape=partialRectangle;html=1;whiteSpace=wrap;collapsible=0;dropTarget=0;pointerEvents=0;fillColor=none;top=0;left=0;bottom=0;right=0;points=[[0,0.5],[1,0.5]];portConstraint=eastwest;" parent="PBRTsVXi39Mgpiq4fNoz-122" vertex="1">
          <mxGeometry y="133" width="220" height="44" as="geometry" />
        </mxCell>
        <mxCell id="PBRTsVXi39Mgpiq4fNoz-136" value="WP2" style="shape=partialRectangle;html=1;whiteSpace=wrap;connectable=0;overflow=hidden;fillColor=none;top=0;left=0;bottom=0;right=0;" parent="PBRTsVXi39Mgpiq4fNoz-135" vertex="1">
          <mxGeometry width="73" height="44" as="geometry" />
        </mxCell>
        <mxCell id="PBRTsVXi39Mgpiq4fNoz-137" value="WP1" style="shape=partialRectangle;html=1;whiteSpace=wrap;connectable=0;overflow=hidden;fillColor=none;top=0;left=0;bottom=0;right=0;" parent="PBRTsVXi39Mgpiq4fNoz-135" vertex="1">
          <mxGeometry x="73" width="74" height="44" as="geometry" />
        </mxCell>
        <mxCell id="PBRTsVXi39Mgpiq4fNoz-138" value="2" style="shape=partialRectangle;html=1;whiteSpace=wrap;connectable=0;overflow=hidden;fillColor=none;top=0;left=0;bottom=0;right=0;" parent="PBRTsVXi39Mgpiq4fNoz-135" vertex="1">
          <mxGeometry x="147" width="73" height="44" as="geometry" />
        </mxCell>
        <mxCell id="PBRTsVXi39Mgpiq4fNoz-139" value="" style="shape=partialRectangle;html=1;whiteSpace=wrap;collapsible=0;dropTarget=0;pointerEvents=0;fillColor=none;top=0;left=0;bottom=0;right=0;points=[[0,0.5],[1,0.5]];portConstraint=eastwest;" parent="PBRTsVXi39Mgpiq4fNoz-122" vertex="1">
          <mxGeometry y="177" width="220" height="44" as="geometry" />
        </mxCell>
        <mxCell id="PBRTsVXi39Mgpiq4fNoz-140" value="WP2" style="shape=partialRectangle;html=1;whiteSpace=wrap;connectable=0;overflow=hidden;fillColor=none;top=0;left=0;bottom=0;right=0;" parent="PBRTsVXi39Mgpiq4fNoz-139" vertex="1">
          <mxGeometry width="73" height="44" as="geometry" />
        </mxCell>
        <mxCell id="PBRTsVXi39Mgpiq4fNoz-141" value="&lt;div&gt;WP2/WP3&lt;/div&gt;" style="shape=partialRectangle;html=1;whiteSpace=wrap;connectable=0;overflow=hidden;fillColor=none;top=0;left=0;bottom=0;right=0;" parent="PBRTsVXi39Mgpiq4fNoz-139" vertex="1">
          <mxGeometry x="73" width="74" height="44" as="geometry" />
        </mxCell>
        <mxCell id="PBRTsVXi39Mgpiq4fNoz-142" value="3" style="shape=partialRectangle;html=1;whiteSpace=wrap;connectable=0;overflow=hidden;fillColor=none;top=0;left=0;bottom=0;right=0;" parent="PBRTsVXi39Mgpiq4fNoz-139" vertex="1">
          <mxGeometry x="147" width="73" height="44" as="geometry" />
        </mxCell>
        <mxCell id="PBRTsVXi39Mgpiq4fNoz-143" value="" style="shape=partialRectangle;html=1;whiteSpace=wrap;collapsible=0;dropTarget=0;pointerEvents=0;fillColor=none;top=0;left=0;bottom=0;right=0;points=[[0,0.5],[1,0.5]];portConstraint=eastwest;" parent="PBRTsVXi39Mgpiq4fNoz-122" vertex="1">
          <mxGeometry y="221" width="220" height="45" as="geometry" />
        </mxCell>
        <mxCell id="PBRTsVXi39Mgpiq4fNoz-144" value="WP3" style="shape=partialRectangle;html=1;whiteSpace=wrap;connectable=0;overflow=hidden;fillColor=none;top=0;left=0;bottom=0;right=0;" parent="PBRTsVXi39Mgpiq4fNoz-143" vertex="1">
          <mxGeometry width="73" height="45" as="geometry" />
        </mxCell>
        <mxCell id="PBRTsVXi39Mgpiq4fNoz-145" value="WP1" style="shape=partialRectangle;html=1;whiteSpace=wrap;connectable=0;overflow=hidden;fillColor=none;top=0;left=0;bottom=0;right=0;" parent="PBRTsVXi39Mgpiq4fNoz-143" vertex="1">
          <mxGeometry x="73" width="74" height="45" as="geometry" />
        </mxCell>
        <mxCell id="PBRTsVXi39Mgpiq4fNoz-146" value="2" style="shape=partialRectangle;html=1;whiteSpace=wrap;connectable=0;overflow=hidden;fillColor=none;top=0;left=0;bottom=0;right=0;" parent="PBRTsVXi39Mgpiq4fNoz-143" vertex="1">
          <mxGeometry x="147" width="73" height="45" as="geometry" />
        </mxCell>
        <mxCell id="PBRTsVXi39Mgpiq4fNoz-147" value="" style="shape=partialRectangle;html=1;whiteSpace=wrap;collapsible=0;dropTarget=0;pointerEvents=0;fillColor=none;top=0;left=0;bottom=0;right=0;points=[[0,0.5],[1,0.5]];portConstraint=eastwest;" parent="PBRTsVXi39Mgpiq4fNoz-122" vertex="1">
          <mxGeometry y="266" width="220" height="44" as="geometry" />
        </mxCell>
        <mxCell id="PBRTsVXi39Mgpiq4fNoz-148" value="WP3" style="shape=partialRectangle;html=1;whiteSpace=wrap;connectable=0;overflow=hidden;fillColor=none;top=0;left=0;bottom=0;right=0;" parent="PBRTsVXi39Mgpiq4fNoz-147" vertex="1">
          <mxGeometry width="73" height="44" as="geometry" />
        </mxCell>
        <mxCell id="PBRTsVXi39Mgpiq4fNoz-149" value="WP2/WP3" style="shape=partialRectangle;html=1;whiteSpace=wrap;connectable=0;overflow=hidden;fillColor=none;top=0;left=0;bottom=0;right=0;" parent="PBRTsVXi39Mgpiq4fNoz-147" vertex="1">
          <mxGeometry x="73" width="74" height="44" as="geometry" />
        </mxCell>
        <mxCell id="PBRTsVXi39Mgpiq4fNoz-150" value="3" style="shape=partialRectangle;html=1;whiteSpace=wrap;connectable=0;overflow=hidden;fillColor=none;top=0;left=0;bottom=0;right=0;" parent="PBRTsVXi39Mgpiq4fNoz-147" vertex="1">
          <mxGeometry x="147" width="73" height="44" as="geometry" />
        </mxCell>
        <mxCell id="PBRTsVXi39Mgpiq4fNoz-157" style="edgeStyle=orthogonalEdgeStyle;rounded=0;orthogonalLoop=1;jettySize=auto;html=1;exitX=0.5;exitY=1;exitDx=0;exitDy=0;exitPerimeter=0;entryX=0.5;entryY=0;entryDx=0;entryDy=0;" parent="WIyWlLk6GJQsqaUBKTNV-1" source="PBRTsVXi39Mgpiq4fNoz-162" target="PBRTsVXi39Mgpiq4fNoz-156" edge="1">
          <mxGeometry relative="1" as="geometry" />
        </mxCell>
        <mxCell id="PBRTsVXi39Mgpiq4fNoz-164" style="edgeStyle=orthogonalEdgeStyle;rounded=0;orthogonalLoop=1;jettySize=auto;html=1;exitX=1;exitY=0.5;exitDx=0;exitDy=0;exitPerimeter=0;" parent="WIyWlLk6GJQsqaUBKTNV-1" source="PBRTsVXi39Mgpiq4fNoz-172" edge="1">
          <mxGeometry relative="1" as="geometry">
            <mxPoint x="-1092.5" y="2010" as="targetPoint" />
          </mxGeometry>
        </mxCell>
        <mxCell id="PBRTsVXi39Mgpiq4fNoz-176" style="edgeStyle=orthogonalEdgeStyle;rounded=0;orthogonalLoop=1;jettySize=auto;html=1;exitX=0;exitY=0.5;exitDx=0;exitDy=0;exitPerimeter=0;entryX=0.5;entryY=0;entryDx=0;entryDy=0;" parent="WIyWlLk6GJQsqaUBKTNV-1" source="PBRTsVXi39Mgpiq4fNoz-154" target="PBRTsVXi39Mgpiq4fNoz-177" edge="1">
          <mxGeometry relative="1" as="geometry">
            <mxPoint x="-1672.5" y="2020" as="targetPoint" />
          </mxGeometry>
        </mxCell>
        <mxCell id="PBRTsVXi39Mgpiq4fNoz-154" value="INITIAL POSITION?" style="strokeWidth=2;html=1;shape=mxgraph.flowchart.decision;whiteSpace=wrap;fillColor=#CCE5FF;" parent="WIyWlLk6GJQsqaUBKTNV-1" vertex="1">
          <mxGeometry x="-1513.5" y="1600" width="210" height="100" as="geometry" />
        </mxCell>
        <mxCell id="PBRTsVXi39Mgpiq4fNoz-159" style="edgeStyle=orthogonalEdgeStyle;rounded=0;orthogonalLoop=1;jettySize=auto;html=1;exitX=0.5;exitY=1;exitDx=0;exitDy=0;entryX=0.5;entryY=0;entryDx=0;entryDy=0;" parent="WIyWlLk6GJQsqaUBKTNV-1" source="PBRTsVXi39Mgpiq4fNoz-156" target="PBRTsVXi39Mgpiq4fNoz-158" edge="1">
          <mxGeometry relative="1" as="geometry" />
        </mxCell>
        <mxCell id="PBRTsVXi39Mgpiq4fNoz-156" value="WP ==&amp;gt; POS : 3" style="shape=process;whiteSpace=wrap;html=1;backgroundOutline=1;fillColor=#FFE599;" parent="WIyWlLk6GJQsqaUBKTNV-1" vertex="1">
          <mxGeometry x="-1472.5" y="1740" width="130" height="60" as="geometry" />
        </mxCell>
        <mxCell id="PBRTsVXi39Mgpiq4fNoz-158" value="TA4 : B" style="rounded=1;whiteSpace=wrap;html=1;fontSize=12;glass=0;strokeWidth=1;shadow=0;fillColor=#99FF99;strokeColor=#FFFFFF;" parent="WIyWlLk6GJQsqaUBKTNV-1" vertex="1">
          <mxGeometry x="-1467.5" y="1830" width="120" height="40" as="geometry" />
        </mxCell>
        <mxCell id="PBRTsVXi39Mgpiq4fNoz-160" value="Q2 : ON" style="strokeWidth=2;html=1;shape=mxgraph.flowchart.display;whiteSpace=wrap;fillColor=#E1D5E7;" parent="WIyWlLk6GJQsqaUBKTNV-1" vertex="1">
          <mxGeometry x="-1272.5" y="1790" width="100" height="60" as="geometry" />
        </mxCell>
        <mxCell id="PBRTsVXi39Mgpiq4fNoz-161" value="" style="endArrow=none;dashed=1;html=1;entryX=-0.036;entryY=0.498;entryDx=0;entryDy=0;entryPerimeter=0;" parent="WIyWlLk6GJQsqaUBKTNV-1" edge="1">
          <mxGeometry width="50" height="50" relative="1" as="geometry">
            <mxPoint x="-1402.5" y="1820.12" as="sourcePoint" />
            <mxPoint x="-1276.1" y="1820" as="targetPoint" />
          </mxGeometry>
        </mxCell>
        <mxCell id="PBRTsVXi39Mgpiq4fNoz-162" value="1" style="text;html=1;strokeColor=#FFFFFF;fillColor=#FFFFFF;align=center;verticalAlign=middle;whiteSpace=wrap;rounded=0;" parent="WIyWlLk6GJQsqaUBKTNV-1" vertex="1">
          <mxGeometry x="-1427.5" y="1710" width="40" height="20" as="geometry" />
        </mxCell>
        <mxCell id="PBRTsVXi39Mgpiq4fNoz-163" style="edgeStyle=orthogonalEdgeStyle;rounded=0;orthogonalLoop=1;jettySize=auto;html=1;exitX=0.5;exitY=1;exitDx=0;exitDy=0;exitPerimeter=0;entryX=0.5;entryY=0;entryDx=0;entryDy=0;" parent="WIyWlLk6GJQsqaUBKTNV-1" source="PBRTsVXi39Mgpiq4fNoz-154" target="PBRTsVXi39Mgpiq4fNoz-162" edge="1">
          <mxGeometry relative="1" as="geometry">
            <mxPoint x="-1407.5" y="1700" as="sourcePoint" />
            <mxPoint x="-1407.5" y="1740" as="targetPoint" />
          </mxGeometry>
        </mxCell>
        <mxCell id="PBRTsVXi39Mgpiq4fNoz-169" style="edgeStyle=orthogonalEdgeStyle;rounded=0;orthogonalLoop=1;jettySize=auto;html=1;exitX=0.5;exitY=1;exitDx=0;exitDy=0;entryX=0.5;entryY=0;entryDx=0;entryDy=0;" parent="WIyWlLk6GJQsqaUBKTNV-1" source="PBRTsVXi39Mgpiq4fNoz-165" target="PBRTsVXi39Mgpiq4fNoz-168" edge="1">
          <mxGeometry relative="1" as="geometry" />
        </mxCell>
        <mxCell id="PBRTsVXi39Mgpiq4fNoz-165" value="WP ==&amp;gt; POS : 6" style="shape=process;whiteSpace=wrap;html=1;backgroundOutline=1;fillColor=#FFE599;" parent="WIyWlLk6GJQsqaUBKTNV-1" vertex="1">
          <mxGeometry x="-1162.5" y="2010" width="130" height="60" as="geometry" />
        </mxCell>
        <mxCell id="PBRTsVXi39Mgpiq4fNoz-166" value="L8 : ON **" style="strokeWidth=2;html=1;shape=mxgraph.flowchart.display;whiteSpace=wrap;fillColor=#E1D5E7;" parent="WIyWlLk6GJQsqaUBKTNV-1" vertex="1">
          <mxGeometry x="-957.5" y="2080" width="100" height="60" as="geometry" />
        </mxCell>
        <mxCell id="PBRTsVXi39Mgpiq4fNoz-167" value="" style="endArrow=none;dashed=1;html=1;entryX=-0.036;entryY=0.498;entryDx=0;entryDy=0;entryPerimeter=0;" parent="WIyWlLk6GJQsqaUBKTNV-1" edge="1">
          <mxGeometry width="50" height="50" relative="1" as="geometry">
            <mxPoint x="-1087.5" y="2110.12" as="sourcePoint" />
            <mxPoint x="-961.0999999999999" y="2110" as="targetPoint" />
          </mxGeometry>
        </mxCell>
        <mxCell id="PBRTsVXi39Mgpiq4fNoz-171" style="edgeStyle=orthogonalEdgeStyle;rounded=0;orthogonalLoop=1;jettySize=auto;html=1;exitX=0.5;exitY=1;exitDx=0;exitDy=0;entryX=0.5;entryY=0;entryDx=0;entryDy=0;" parent="WIyWlLk6GJQsqaUBKTNV-1" source="PBRTsVXi39Mgpiq4fNoz-168" target="PBRTsVXi39Mgpiq4fNoz-170" edge="1">
          <mxGeometry relative="1" as="geometry" />
        </mxCell>
        <mxCell id="PBRTsVXi39Mgpiq4fNoz-168" value="REMOVE WP" style="html=1;strokeWidth=2;shape=manualInput;whiteSpace=wrap;rounded=1;size=26;arcSize=11;" parent="WIyWlLk6GJQsqaUBKTNV-1" vertex="1">
          <mxGeometry x="-1167.5" y="2130" width="140" height="60" as="geometry" />
        </mxCell>
        <mxCell id="PBRTsVXi39Mgpiq4fNoz-170" value="TA4 : B" style="rounded=1;whiteSpace=wrap;html=1;fontSize=12;glass=0;strokeWidth=1;shadow=0;fillColor=#99FF99;strokeColor=#FFFFFF;" parent="WIyWlLk6GJQsqaUBKTNV-1" vertex="1">
          <mxGeometry x="-1157.5" y="2220" width="120" height="40" as="geometry" />
        </mxCell>
        <mxCell id="PBRTsVXi39Mgpiq4fNoz-173" style="edgeStyle=orthogonalEdgeStyle;rounded=0;orthogonalLoop=1;jettySize=auto;html=1;exitX=0.5;exitY=1;exitDx=0;exitDy=0;" parent="WIyWlLk6GJQsqaUBKTNV-1" source="PBRTsVXi39Mgpiq4fNoz-172" target="PBRTsVXi39Mgpiq4fNoz-172" edge="1">
          <mxGeometry relative="1" as="geometry" />
        </mxCell>
        <mxCell id="PBRTsVXi39Mgpiq4fNoz-172" value="2" style="text;html=1;strokeColor=none;fillColor=#FFFFFF;align=center;verticalAlign=middle;whiteSpace=wrap;rounded=0;" parent="WIyWlLk6GJQsqaUBKTNV-1" vertex="1">
          <mxGeometry x="-1222.5" y="1640" width="40" height="20" as="geometry" />
        </mxCell>
        <mxCell id="PBRTsVXi39Mgpiq4fNoz-175" style="edgeStyle=orthogonalEdgeStyle;rounded=0;orthogonalLoop=1;jettySize=auto;html=1;exitX=1;exitY=0.5;exitDx=0;exitDy=0;exitPerimeter=0;" parent="WIyWlLk6GJQsqaUBKTNV-1" source="PBRTsVXi39Mgpiq4fNoz-154" target="PBRTsVXi39Mgpiq4fNoz-172" edge="1">
          <mxGeometry relative="1" as="geometry">
            <mxPoint x="-1092.5" y="2010" as="targetPoint" />
            <mxPoint x="-1302.5" y="1650" as="sourcePoint" />
          </mxGeometry>
        </mxCell>
        <mxCell id="PBRTsVXi39Mgpiq4fNoz-181" style="edgeStyle=orthogonalEdgeStyle;rounded=0;orthogonalLoop=1;jettySize=auto;html=1;exitX=0.5;exitY=1;exitDx=0;exitDy=0;entryX=0.5;entryY=0;entryDx=0;entryDy=0;" parent="WIyWlLk6GJQsqaUBKTNV-1" source="PBRTsVXi39Mgpiq4fNoz-177" target="PBRTsVXi39Mgpiq4fNoz-180" edge="1">
          <mxGeometry relative="1" as="geometry" />
        </mxCell>
        <mxCell id="PBRTsVXi39Mgpiq4fNoz-177" value="WP ==&amp;gt; POS : 2" style="shape=process;whiteSpace=wrap;html=1;backgroundOutline=1;fillColor=#FFE599;" parent="WIyWlLk6GJQsqaUBKTNV-1" vertex="1">
          <mxGeometry x="-1632.5" y="2020" width="130" height="60" as="geometry" />
        </mxCell>
        <mxCell id="PBRTsVXi39Mgpiq4fNoz-178" value="Q1 : ON" style="strokeWidth=2;html=1;shape=mxgraph.flowchart.display;whiteSpace=wrap;fillColor=#E1D5E7;" parent="WIyWlLk6GJQsqaUBKTNV-1" vertex="1">
          <mxGeometry x="-1432.5" y="2060" width="100" height="60" as="geometry" />
        </mxCell>
        <mxCell id="PBRTsVXi39Mgpiq4fNoz-179" value="" style="endArrow=none;dashed=1;html=1;entryX=-0.036;entryY=0.498;entryDx=0;entryDy=0;entryPerimeter=0;" parent="WIyWlLk6GJQsqaUBKTNV-1" edge="1">
          <mxGeometry width="50" height="50" relative="1" as="geometry">
            <mxPoint x="-1562.5" y="2090.12" as="sourcePoint" />
            <mxPoint x="-1436.1" y="2090" as="targetPoint" />
          </mxGeometry>
        </mxCell>
        <mxCell id="PBRTsVXi39Mgpiq4fNoz-180" value="TA4 : B" style="rounded=1;whiteSpace=wrap;html=1;fontSize=12;glass=0;strokeWidth=1;shadow=0;fillColor=#99FF99;strokeColor=#FFFFFF;" parent="WIyWlLk6GJQsqaUBKTNV-1" vertex="1">
          <mxGeometry x="-1627.5" y="2110" width="120" height="40" as="geometry" />
        </mxCell>
        <mxCell id="PBRTsVXi39Mgpiq4fNoz-182" value="2" style="text;html=1;strokeColor=none;fillColor=#FFFFFF;align=center;verticalAlign=middle;whiteSpace=wrap;rounded=0;" parent="WIyWlLk6GJQsqaUBKTNV-1" vertex="1">
          <mxGeometry x="-1222.5" y="1640" width="40" height="20" as="geometry" />
        </mxCell>
        <mxCell id="PBRTsVXi39Mgpiq4fNoz-184" value="3" style="text;html=1;strokeColor=none;fillColor=#FFFFFF;align=center;verticalAlign=middle;whiteSpace=wrap;rounded=0;" parent="WIyWlLk6GJQsqaUBKTNV-1" vertex="1">
          <mxGeometry x="-1587.5" y="1690" width="40" height="20" as="geometry" />
        </mxCell>
        <mxCell id="AtgP_xt9bwcPU-3vSrDr-1" value="TASK A" style="text;html=1;strokeColor=none;fillColor=none;align=center;verticalAlign=middle;whiteSpace=wrap;rounded=0;fontSize=150;" vertex="1" parent="WIyWlLk6GJQsqaUBKTNV-1">
          <mxGeometry x="-1480" y="-120" width="1015" height="20" as="geometry" />
        </mxCell>
        <mxCell id="AtgP_xt9bwcPU-3vSrDr-3" value="" style="rounded=0;html=1;jettySize=auto;orthogonalLoop=1;fontSize=11;endArrow=block;endFill=0;endSize=8;strokeWidth=1;shadow=0;labelBackgroundColor=none;edgeStyle=orthogonalEdgeStyle;" edge="1" parent="WIyWlLk6GJQsqaUBKTNV-1" source="AtgP_xt9bwcPU-3vSrDr-4">
          <mxGeometry relative="1" as="geometry">
            <mxPoint x="1747" y="241" as="targetPoint" />
          </mxGeometry>
        </mxCell>
        <mxCell id="AtgP_xt9bwcPU-3vSrDr-4" value="&lt;div&gt;TB2&lt;/div&gt;" style="rounded=1;whiteSpace=wrap;html=1;fontSize=12;glass=0;strokeWidth=1;shadow=0;fillColor=#99FF99;" vertex="1" parent="WIyWlLk6GJQsqaUBKTNV-1">
          <mxGeometry x="1687" y="131" width="120" height="40" as="geometry" />
        </mxCell>
        <mxCell id="AtgP_xt9bwcPU-3vSrDr-5" value="" style="endArrow=none;dashed=1;html=1;" edge="1" parent="WIyWlLk6GJQsqaUBKTNV-1">
          <mxGeometry width="50" height="50" relative="1" as="geometry">
            <mxPoint x="1747" y="191" as="sourcePoint" />
            <mxPoint x="1887" y="191" as="targetPoint" />
          </mxGeometry>
        </mxCell>
        <mxCell id="AtgP_xt9bwcPU-3vSrDr-6" value="&lt;div&gt;L2 : ON&lt;/div&gt;&lt;div&gt;&lt;br&gt;&lt;/div&gt;&lt;div&gt;L7 : ON&lt;br&gt;&lt;/div&gt;" style="strokeWidth=2;html=1;shape=mxgraph.flowchart.display;whiteSpace=wrap;" vertex="1" parent="WIyWlLk6GJQsqaUBKTNV-1">
          <mxGeometry x="1887" y="161" width="100" height="60" as="geometry" />
        </mxCell>
        <mxCell id="AtgP_xt9bwcPU-3vSrDr-7" value="B3 = MAN (1)" style="html=1;strokeWidth=2;shape=manualInput;whiteSpace=wrap;rounded=1;size=26;arcSize=11;" vertex="1" parent="WIyWlLk6GJQsqaUBKTNV-1">
          <mxGeometry x="1677" y="231" width="140" height="60" as="geometry" />
        </mxCell>
        <mxCell id="AtgP_xt9bwcPU-3vSrDr-8" value="" style="endArrow=classic;html=1;exitX=0.5;exitY=1;exitDx=0;exitDy=0;" edge="1" parent="WIyWlLk6GJQsqaUBKTNV-1" source="AtgP_xt9bwcPU-3vSrDr-7">
          <mxGeometry width="50" height="50" relative="1" as="geometry">
            <mxPoint x="1867" y="421" as="sourcePoint" />
            <mxPoint x="1747" y="321" as="targetPoint" />
          </mxGeometry>
        </mxCell>
        <mxCell id="AtgP_xt9bwcPU-3vSrDr-9" value="" style="endArrow=classic;html=1;exitX=0.5;exitY=1;exitDx=0;exitDy=0;" edge="1" parent="WIyWlLk6GJQsqaUBKTNV-1">
          <mxGeometry width="50" height="50" relative="1" as="geometry">
            <mxPoint x="1747" y="370" as="sourcePoint" />
            <mxPoint x="1747" y="430" as="targetPoint" />
          </mxGeometry>
        </mxCell>
        <mxCell id="AtgP_xt9bwcPU-3vSrDr-10" value="&lt;div&gt;L2 : ON&lt;/div&gt;" style="strokeWidth=2;html=1;shape=mxgraph.flowchart.display;whiteSpace=wrap;fillColor=#E1D5E7;" vertex="1" parent="WIyWlLk6GJQsqaUBKTNV-1">
          <mxGeometry x="1887" y="161" width="100" height="60" as="geometry" />
        </mxCell>
        <mxCell id="AtgP_xt9bwcPU-3vSrDr-11" value="&lt;div&gt;L2 : 2HZ&lt;br&gt;&lt;/div&gt;&lt;div&gt;&lt;br&gt;&lt;/div&gt;&lt;div&gt;L8 : ON**&lt;br&gt;&lt;/div&gt;" style="strokeWidth=2;html=1;shape=mxgraph.flowchart.display;whiteSpace=wrap;fillColor=#E1D5E7;" vertex="1" parent="WIyWlLk6GJQsqaUBKTNV-1">
          <mxGeometry x="1877" y="270" width="100" height="60" as="geometry" />
        </mxCell>
        <mxCell id="AtgP_xt9bwcPU-3vSrDr-12" value="" style="endArrow=none;dashed=1;html=1;entryX=0;entryY=0.5;entryDx=0;entryDy=0;entryPerimeter=0;" edge="1" parent="WIyWlLk6GJQsqaUBKTNV-1" target="AtgP_xt9bwcPU-3vSrDr-11">
          <mxGeometry width="50" height="50" relative="1" as="geometry">
            <mxPoint x="1747" y="300" as="sourcePoint" />
            <mxPoint x="1837" y="290" as="targetPoint" />
          </mxGeometry>
        </mxCell>
        <mxCell id="AtgP_xt9bwcPU-3vSrDr-13" style="edgeStyle=orthogonalEdgeStyle;rounded=0;orthogonalLoop=1;jettySize=auto;html=1;exitX=0.5;exitY=1;exitDx=0;exitDy=0;entryX=0.495;entryY=0.242;entryDx=0;entryDy=0;entryPerimeter=0;" edge="1" parent="WIyWlLk6GJQsqaUBKTNV-1">
          <mxGeometry relative="1" as="geometry">
            <mxPoint x="1747" y="618" as="sourcePoint" />
            <mxPoint x="1746.499999999999" y="652.5200000000004" as="targetPoint" />
          </mxGeometry>
        </mxCell>
        <mxCell id="AtgP_xt9bwcPU-3vSrDr-14" value="" style="endArrow=classic;html=1;exitX=0.5;exitY=1;exitDx=0;exitDy=0;entryX=0.5;entryY=0;entryDx=0;entryDy=0;" edge="1" parent="WIyWlLk6GJQsqaUBKTNV-1" source="AtgP_xt9bwcPU-3vSrDr-15" target="AtgP_xt9bwcPU-3vSrDr-26">
          <mxGeometry width="50" height="50" relative="1" as="geometry">
            <mxPoint x="1941" y="521" as="sourcePoint" />
            <mxPoint x="1917" y="371" as="targetPoint" />
          </mxGeometry>
        </mxCell>
        <mxCell id="AtgP_xt9bwcPU-3vSrDr-15" value="B4" style="html=1;strokeWidth=2;shape=manualInput;whiteSpace=wrap;rounded=1;size=26;arcSize=11;" vertex="1" parent="WIyWlLk6GJQsqaUBKTNV-1">
          <mxGeometry x="1677" y="380" width="140" height="60" as="geometry" />
        </mxCell>
        <mxCell id="AtgP_xt9bwcPU-3vSrDr-16" value="INITIAL POSITION?" style="strokeWidth=2;html=1;shape=mxgraph.flowchart.decision;whiteSpace=wrap;fillColor=#CCE5FF;" vertex="1" parent="WIyWlLk6GJQsqaUBKTNV-1">
          <mxGeometry x="1642" y="653" width="210" height="100" as="geometry" />
        </mxCell>
        <mxCell id="AtgP_xt9bwcPU-3vSrDr-17" value="" style="endArrow=classic;html=1;exitX=1;exitY=0.5;exitDx=0;exitDy=0;exitPerimeter=0;" edge="1" parent="WIyWlLk6GJQsqaUBKTNV-1" source="AtgP_xt9bwcPU-3vSrDr-16">
          <mxGeometry relative="1" as="geometry">
            <mxPoint x="1951" y="703" as="sourcePoint" />
            <mxPoint x="1907" y="703" as="targetPoint" />
          </mxGeometry>
        </mxCell>
        <mxCell id="AtgP_xt9bwcPU-3vSrDr-18" value="NOT" style="edgeLabel;resizable=0;html=1;align=center;verticalAlign=middle;" connectable="0" vertex="1" parent="AtgP_xt9bwcPU-3vSrDr-17">
          <mxGeometry relative="1" as="geometry" />
        </mxCell>
        <mxCell id="AtgP_xt9bwcPU-3vSrDr-19" value="" style="endArrow=classic;html=1;exitX=0.5;exitY=1;exitDx=0;exitDy=0;exitPerimeter=0;" edge="1" parent="WIyWlLk6GJQsqaUBKTNV-1">
          <mxGeometry relative="1" as="geometry">
            <mxPoint x="1747" y="753" as="sourcePoint" />
            <mxPoint x="1747" y="823" as="targetPoint" />
          </mxGeometry>
        </mxCell>
        <mxCell id="AtgP_xt9bwcPU-3vSrDr-20" value="YES" style="edgeLabel;resizable=0;html=1;align=center;verticalAlign=middle;" connectable="0" vertex="1" parent="AtgP_xt9bwcPU-3vSrDr-19">
          <mxGeometry relative="1" as="geometry" />
        </mxCell>
        <mxCell id="AtgP_xt9bwcPU-3vSrDr-21" style="edgeStyle=orthogonalEdgeStyle;rounded=0;orthogonalLoop=1;jettySize=auto;html=1;exitX=0.5;exitY=1;exitDx=0;exitDy=0;entryX=0.5;entryY=0;entryDx=0;entryDy=0;entryPerimeter=0;" edge="1" parent="WIyWlLk6GJQsqaUBKTNV-1" source="AtgP_xt9bwcPU-3vSrDr-30">
          <mxGeometry relative="1" as="geometry">
            <mxPoint x="1747" y="950" as="targetPoint" />
            <mxPoint x="1747" y="910" as="sourcePoint" />
          </mxGeometry>
        </mxCell>
        <mxCell id="AtgP_xt9bwcPU-3vSrDr-22" value="&lt;div&gt;EVALUATION &lt;br&gt;&lt;/div&gt;&lt;div&gt;END&lt;/div&gt;" style="rounded=1;whiteSpace=wrap;html=1;fontSize=12;glass=0;strokeWidth=1;shadow=0;fillColor=#FFCCCC;strokeColor=#FF9999;" vertex="1" parent="WIyWlLk6GJQsqaUBKTNV-1">
          <mxGeometry x="1907" y="683" width="120" height="40" as="geometry" />
        </mxCell>
        <mxCell id="AtgP_xt9bwcPU-3vSrDr-23" value="TB4" style="rounded=1;whiteSpace=wrap;html=1;fontSize=12;glass=0;strokeWidth=1;shadow=0;fillColor=#99FF99;strokeColor=#FFFFFF;" vertex="1" parent="WIyWlLk6GJQsqaUBKTNV-1">
          <mxGeometry x="1687" y="950" width="120" height="40" as="geometry" />
        </mxCell>
        <mxCell id="AtgP_xt9bwcPU-3vSrDr-24" value="1 WP ==&amp;gt; POS : 3" style="html=1;strokeWidth=2;shape=manualInput;whiteSpace=wrap;rounded=1;size=26;arcSize=11;" vertex="1" parent="WIyWlLk6GJQsqaUBKTNV-1">
          <mxGeometry x="1677" y="310" width="140" height="60" as="geometry" />
        </mxCell>
        <mxCell id="AtgP_xt9bwcPU-3vSrDr-25" style="edgeStyle=orthogonalEdgeStyle;rounded=0;orthogonalLoop=1;jettySize=auto;html=1;exitX=0.5;exitY=1;exitDx=0;exitDy=0;entryX=0.5;entryY=0;entryDx=0;entryDy=0;" edge="1" parent="WIyWlLk6GJQsqaUBKTNV-1" source="AtgP_xt9bwcPU-3vSrDr-26" target="AtgP_xt9bwcPU-3vSrDr-27">
          <mxGeometry relative="1" as="geometry" />
        </mxCell>
        <mxCell id="AtgP_xt9bwcPU-3vSrDr-26" value="1 WP ==&amp;gt; POS : 2" style="shape=process;whiteSpace=wrap;html=1;backgroundOutline=1;fillColor=#FFE599;" vertex="1" parent="WIyWlLk6GJQsqaUBKTNV-1">
          <mxGeometry x="1682" y="468" width="130" height="60" as="geometry" />
        </mxCell>
        <mxCell id="AtgP_xt9bwcPU-3vSrDr-27" value="INITIAL POSITION" style="shape=process;whiteSpace=wrap;html=1;backgroundOutline=1;fillColor=#FFE599;" vertex="1" parent="WIyWlLk6GJQsqaUBKTNV-1">
          <mxGeometry x="1682" y="559" width="130" height="60" as="geometry" />
        </mxCell>
        <mxCell id="AtgP_xt9bwcPU-3vSrDr-28" value="L2 : ON" style="strokeWidth=2;html=1;shape=mxgraph.flowchart.display;whiteSpace=wrap;fillColor=#E1D5E7;" vertex="1" parent="WIyWlLk6GJQsqaUBKTNV-1">
          <mxGeometry x="1887" y="600" width="100" height="60" as="geometry" />
        </mxCell>
        <mxCell id="AtgP_xt9bwcPU-3vSrDr-29" value="" style="endArrow=none;dashed=1;html=1;entryX=0;entryY=0.5;entryDx=0;entryDy=0;entryPerimeter=0;" edge="1" parent="WIyWlLk6GJQsqaUBKTNV-1" target="AtgP_xt9bwcPU-3vSrDr-28">
          <mxGeometry width="50" height="50" relative="1" as="geometry">
            <mxPoint x="1747" y="630" as="sourcePoint" />
            <mxPoint x="1917" y="520" as="targetPoint" />
          </mxGeometry>
        </mxCell>
        <mxCell id="AtgP_xt9bwcPU-3vSrDr-30" value="B3 = AUTO (0)" style="html=1;strokeWidth=2;shape=manualInput;whiteSpace=wrap;rounded=1;size=26;arcSize=11;" vertex="1" parent="WIyWlLk6GJQsqaUBKTNV-1">
          <mxGeometry x="1677" y="810" width="140" height="60" as="geometry" />
        </mxCell>
        <mxCell id="AtgP_xt9bwcPU-3vSrDr-31" value="L2 : OFF" style="strokeWidth=2;html=1;shape=mxgraph.flowchart.display;whiteSpace=wrap;fillColor=#E1D5E7;" vertex="1" parent="WIyWlLk6GJQsqaUBKTNV-1">
          <mxGeometry x="1877" y="880" width="100" height="60" as="geometry" />
        </mxCell>
        <mxCell id="AtgP_xt9bwcPU-3vSrDr-32" value="L1 : ON" style="strokeWidth=2;html=1;shape=mxgraph.flowchart.display;whiteSpace=wrap;fillColor=#E1D5E7;" vertex="1" parent="WIyWlLk6GJQsqaUBKTNV-1">
          <mxGeometry x="1877" y="940" width="100" height="60" as="geometry" />
        </mxCell>
        <mxCell id="AtgP_xt9bwcPU-3vSrDr-33" value="L7 : ON **" style="strokeWidth=2;html=1;shape=mxgraph.flowchart.display;whiteSpace=wrap;fillColor=#E1D5E7;" vertex="1" parent="WIyWlLk6GJQsqaUBKTNV-1">
          <mxGeometry x="1877" y="1000" width="100" height="60" as="geometry" />
        </mxCell>
        <mxCell id="AtgP_xt9bwcPU-3vSrDr-34" value="" style="endArrow=none;dashed=1;html=1;entryX=-0.036;entryY=0.498;entryDx=0;entryDy=0;entryPerimeter=0;" edge="1" parent="WIyWlLk6GJQsqaUBKTNV-1" target="AtgP_xt9bwcPU-3vSrDr-31">
          <mxGeometry width="50" height="50" relative="1" as="geometry">
            <mxPoint x="1747" y="910" as="sourcePoint" />
            <mxPoint x="1857" y="900" as="targetPoint" />
          </mxGeometry>
        </mxCell>
        <mxCell id="AtgP_xt9bwcPU-3vSrDr-35" value="" style="endArrow=none;dashed=1;html=1;entryX=0;entryY=0.5;entryDx=0;entryDy=0;entryPerimeter=0;" edge="1" parent="WIyWlLk6GJQsqaUBKTNV-1" target="AtgP_xt9bwcPU-3vSrDr-32">
          <mxGeometry width="50" height="50" relative="1" as="geometry">
            <mxPoint x="1827" y="910" as="sourcePoint" />
            <mxPoint x="1917" y="1030" as="targetPoint" />
          </mxGeometry>
        </mxCell>
        <mxCell id="AtgP_xt9bwcPU-3vSrDr-36" value="" style="endArrow=none;dashed=1;html=1;entryX=0;entryY=0.5;entryDx=0;entryDy=0;entryPerimeter=0;" edge="1" parent="WIyWlLk6GJQsqaUBKTNV-1" target="AtgP_xt9bwcPU-3vSrDr-33">
          <mxGeometry width="50" height="50" relative="1" as="geometry">
            <mxPoint x="1827" y="910" as="sourcePoint" />
            <mxPoint x="1867" y="1030" as="targetPoint" />
          </mxGeometry>
        </mxCell>
        <mxCell id="AtgP_xt9bwcPU-3vSrDr-37" style="edgeStyle=orthogonalEdgeStyle;rounded=0;orthogonalLoop=1;jettySize=auto;html=1;exitX=0.5;exitY=1;exitDx=0;exitDy=0;entryX=0.5;entryY=0.167;entryDx=0;entryDy=0;entryPerimeter=0;" edge="1" parent="WIyWlLk6GJQsqaUBKTNV-1" source="AtgP_xt9bwcPU-3vSrDr-38" target="AtgP_xt9bwcPU-3vSrDr-52">
          <mxGeometry relative="1" as="geometry">
            <mxPoint x="1322" y="200.49999999999977" as="targetPoint" />
          </mxGeometry>
        </mxCell>
        <mxCell id="AtgP_xt9bwcPU-3vSrDr-38" value="&lt;div&gt;TB4&lt;/div&gt;" style="rounded=1;whiteSpace=wrap;html=1;fontSize=12;glass=0;strokeWidth=1;shadow=0;fillColor=#99FF99;" vertex="1" parent="WIyWlLk6GJQsqaUBKTNV-1">
          <mxGeometry x="1262" y="131.5" width="120" height="40" as="geometry" />
        </mxCell>
        <mxCell id="AtgP_xt9bwcPU-3vSrDr-51" style="edgeStyle=orthogonalEdgeStyle;rounded=0;orthogonalLoop=1;jettySize=auto;html=1;exitX=0.5;exitY=1;exitDx=0;exitDy=0;entryX=0.5;entryY=0;entryDx=0;entryDy=0;" edge="1" parent="WIyWlLk6GJQsqaUBKTNV-1" source="AtgP_xt9bwcPU-3vSrDr-52" target="AtgP_xt9bwcPU-3vSrDr-54">
          <mxGeometry relative="1" as="geometry" />
        </mxCell>
        <mxCell id="AtgP_xt9bwcPU-3vSrDr-52" value="&amp;gt;1 WP ==&amp;gt;POS : 4" style="html=1;strokeWidth=2;shape=manualInput;whiteSpace=wrap;rounded=1;size=26;arcSize=11;" vertex="1" parent="WIyWlLk6GJQsqaUBKTNV-1">
          <mxGeometry x="1257" y="230" width="140" height="60" as="geometry" />
        </mxCell>
        <mxCell id="AtgP_xt9bwcPU-3vSrDr-53" style="edgeStyle=orthogonalEdgeStyle;rounded=0;orthogonalLoop=1;jettySize=auto;html=1;exitX=0.5;exitY=1;exitDx=0;exitDy=0;entryX=0.495;entryY=0.211;entryDx=0;entryDy=0;entryPerimeter=0;" edge="1" parent="WIyWlLk6GJQsqaUBKTNV-1" source="AtgP_xt9bwcPU-3vSrDr-54" target="AtgP_xt9bwcPU-3vSrDr-56">
          <mxGeometry relative="1" as="geometry" />
        </mxCell>
        <mxCell id="AtgP_xt9bwcPU-3vSrDr-54" value="&lt;div&gt;TB4 : A&lt;br&gt;&lt;/div&gt;" style="rounded=1;whiteSpace=wrap;html=1;fontSize=12;glass=0;strokeWidth=1;shadow=0;fillColor=#99FF99;" vertex="1" parent="WIyWlLk6GJQsqaUBKTNV-1">
          <mxGeometry x="1267" y="323" width="120" height="40" as="geometry" />
        </mxCell>
        <mxCell id="AtgP_xt9bwcPU-3vSrDr-55" style="edgeStyle=orthogonalEdgeStyle;rounded=0;orthogonalLoop=1;jettySize=auto;html=1;exitX=0.5;exitY=1;exitDx=0;exitDy=0;entryX=0.507;entryY=0.21;entryDx=0;entryDy=0;entryPerimeter=0;" edge="1" parent="WIyWlLk6GJQsqaUBKTNV-1" source="AtgP_xt9bwcPU-3vSrDr-56" target="AtgP_xt9bwcPU-3vSrDr-60">
          <mxGeometry relative="1" as="geometry" />
        </mxCell>
        <mxCell id="AtgP_xt9bwcPU-3vSrDr-56" value="B5(WP1) XOR B6 (WP2) XOR B7 (WP3)" style="html=1;strokeWidth=2;shape=manualInput;whiteSpace=wrap;rounded=1;size=26;arcSize=11;" vertex="1" parent="WIyWlLk6GJQsqaUBKTNV-1">
          <mxGeometry x="1257" y="393" width="140" height="80" as="geometry" />
        </mxCell>
        <mxCell id="AtgP_xt9bwcPU-3vSrDr-57" value="&lt;div&gt;L5 XOR L6&lt;/div&gt;&lt;div&gt;XOR L7 : ON&lt;/div&gt;" style="strokeWidth=2;html=1;shape=mxgraph.flowchart.display;whiteSpace=wrap;fillColor=#E1D5E7;" vertex="1" parent="WIyWlLk6GJQsqaUBKTNV-1">
          <mxGeometry x="1457" y="456" width="100" height="60" as="geometry" />
        </mxCell>
        <mxCell id="AtgP_xt9bwcPU-3vSrDr-58" value="" style="endArrow=none;dashed=1;html=1;entryX=-0.036;entryY=0.498;entryDx=0;entryDy=0;entryPerimeter=0;" edge="1" parent="WIyWlLk6GJQsqaUBKTNV-1" target="AtgP_xt9bwcPU-3vSrDr-57">
          <mxGeometry width="50" height="50" relative="1" as="geometry">
            <mxPoint x="1327" y="486" as="sourcePoint" />
            <mxPoint x="1437" y="476" as="targetPoint" />
          </mxGeometry>
        </mxCell>
        <mxCell id="AtgP_xt9bwcPU-3vSrDr-59" style="edgeStyle=orthogonalEdgeStyle;rounded=0;orthogonalLoop=1;jettySize=auto;html=1;exitX=0.5;exitY=1;exitDx=0;exitDy=0;entryX=0.5;entryY=0;entryDx=0;entryDy=0;entryPerimeter=0;" edge="1" parent="WIyWlLk6GJQsqaUBKTNV-1" source="AtgP_xt9bwcPU-3vSrDr-60">
          <mxGeometry relative="1" as="geometry">
            <mxPoint x="1327" y="603" as="targetPoint" />
          </mxGeometry>
        </mxCell>
        <mxCell id="AtgP_xt9bwcPU-3vSrDr-60" value="B1" style="html=1;strokeWidth=2;shape=manualInput;whiteSpace=wrap;rounded=1;size=26;arcSize=11;" vertex="1" parent="WIyWlLk6GJQsqaUBKTNV-1">
          <mxGeometry x="1257" y="498" width="140" height="60" as="geometry" />
        </mxCell>
        <mxCell id="AtgP_xt9bwcPU-3vSrDr-61" value="L1 : OFF" style="strokeWidth=2;html=1;shape=mxgraph.flowchart.display;whiteSpace=wrap;fillColor=#E1D5E7;" vertex="1" parent="WIyWlLk6GJQsqaUBKTNV-1">
          <mxGeometry x="1457" y="543" width="100" height="60" as="geometry" />
        </mxCell>
        <mxCell id="AtgP_xt9bwcPU-3vSrDr-62" value="Empty Magazine?" style="strokeWidth=2;html=1;shape=mxgraph.flowchart.decision;whiteSpace=wrap;fillColor=#CCE5FF;" vertex="1" parent="WIyWlLk6GJQsqaUBKTNV-1">
          <mxGeometry x="1222" y="603" width="210" height="100" as="geometry" />
        </mxCell>
        <mxCell id="AtgP_xt9bwcPU-3vSrDr-63" value="" style="endArrow=none;dashed=1;html=1;entryX=-0.036;entryY=0.498;entryDx=0;entryDy=0;entryPerimeter=0;" edge="1" parent="WIyWlLk6GJQsqaUBKTNV-1">
          <mxGeometry width="50" height="50" relative="1" as="geometry">
            <mxPoint x="1327" y="573.1199999999999" as="sourcePoint" />
            <mxPoint x="1453.3999999999996" y="573" as="targetPoint" />
          </mxGeometry>
        </mxCell>
        <mxCell id="AtgP_xt9bwcPU-3vSrDr-64" value="" style="endArrow=classic;html=1;exitX=0.5;exitY=1;exitDx=0;exitDy=0;exitPerimeter=0;" edge="1" parent="WIyWlLk6GJQsqaUBKTNV-1">
          <mxGeometry relative="1" as="geometry">
            <mxPoint x="1326.58" y="703" as="sourcePoint" />
            <mxPoint x="1326.58" y="773" as="targetPoint" />
          </mxGeometry>
        </mxCell>
        <mxCell id="AtgP_xt9bwcPU-3vSrDr-65" value="NO" style="edgeLabel;resizable=0;html=1;align=center;verticalAlign=middle;" connectable="0" vertex="1" parent="AtgP_xt9bwcPU-3vSrDr-64">
          <mxGeometry relative="1" as="geometry" />
        </mxCell>
        <mxCell id="AtgP_xt9bwcPU-3vSrDr-66" value="" style="endArrow=classic;html=1;exitX=1;exitY=0.5;exitDx=0;exitDy=0;exitPerimeter=0;" edge="1" parent="WIyWlLk6GJQsqaUBKTNV-1">
          <mxGeometry relative="1" as="geometry">
            <mxPoint x="1432" y="652.5799999999999" as="sourcePoint" />
            <mxPoint x="1487" y="652.5799999999999" as="targetPoint" />
          </mxGeometry>
        </mxCell>
        <mxCell id="AtgP_xt9bwcPU-3vSrDr-67" value="NOT" style="edgeLabel;resizable=0;html=1;align=center;verticalAlign=middle;" connectable="0" vertex="1" parent="AtgP_xt9bwcPU-3vSrDr-66">
          <mxGeometry relative="1" as="geometry" />
        </mxCell>
        <mxCell id="AtgP_xt9bwcPU-3vSrDr-68" value="TB4 : D" style="rounded=1;whiteSpace=wrap;html=1;fontSize=12;glass=0;strokeWidth=1;shadow=0;fillColor=#99FF99;strokeColor=#FFFFFF;" vertex="1" parent="WIyWlLk6GJQsqaUBKTNV-1">
          <mxGeometry x="1487" y="633" width="120" height="40" as="geometry" />
        </mxCell>
        <mxCell id="AtgP_xt9bwcPU-3vSrDr-69" value="" style="endArrow=none;html=1;entryX=0.5;entryY=1;entryDx=0;entryDy=0;" edge="1" parent="WIyWlLk6GJQsqaUBKTNV-1" target="AtgP_xt9bwcPU-3vSrDr-68">
          <mxGeometry width="50" height="50" relative="1" as="geometry">
            <mxPoint x="1547" y="753" as="sourcePoint" />
            <mxPoint x="1492" y="763" as="targetPoint" />
          </mxGeometry>
        </mxCell>
        <mxCell id="AtgP_xt9bwcPU-3vSrDr-70" value="" style="endArrow=none;html=1;" edge="1" parent="WIyWlLk6GJQsqaUBKTNV-1">
          <mxGeometry width="50" height="50" relative="1" as="geometry">
            <mxPoint x="1322" y="753" as="sourcePoint" />
            <mxPoint x="1552" y="753" as="targetPoint" />
          </mxGeometry>
        </mxCell>
        <mxCell id="AtgP_xt9bwcPU-3vSrDr-71" style="edgeStyle=orthogonalEdgeStyle;rounded=0;orthogonalLoop=1;jettySize=auto;html=1;exitX=0.5;exitY=1;exitDx=0;exitDy=0;entryX=0.526;entryY=-0.012;entryDx=0;entryDy=0;entryPerimeter=0;" edge="1" parent="WIyWlLk6GJQsqaUBKTNV-1" source="AtgP_xt9bwcPU-3vSrDr-72" target="AtgP_xt9bwcPU-3vSrDr-94">
          <mxGeometry relative="1" as="geometry" />
        </mxCell>
        <mxCell id="AtgP_xt9bwcPU-3vSrDr-72" value="1 WP ==&amp;gt; POS : 4" style="shape=process;whiteSpace=wrap;html=1;backgroundOutline=1;fillColor=#FFE599;" vertex="1" parent="WIyWlLk6GJQsqaUBKTNV-1">
          <mxGeometry x="1262" y="773" width="130" height="60" as="geometry" />
        </mxCell>
        <mxCell id="AtgP_xt9bwcPU-3vSrDr-73" style="edgeStyle=orthogonalEdgeStyle;rounded=0;orthogonalLoop=1;jettySize=auto;html=1;exitX=0.5;exitY=1;exitDx=0;exitDy=0;" edge="1" parent="WIyWlLk6GJQsqaUBKTNV-1" source="AtgP_xt9bwcPU-3vSrDr-74" target="AtgP_xt9bwcPU-3vSrDr-82">
          <mxGeometry relative="1" as="geometry" />
        </mxCell>
        <mxCell id="AtgP_xt9bwcPU-3vSrDr-74" value="TB4 : D" style="rounded=1;whiteSpace=wrap;html=1;fontSize=12;glass=0;strokeWidth=1;shadow=0;fillColor=#99FF99;strokeColor=#00CC66;" vertex="1" parent="WIyWlLk6GJQsqaUBKTNV-1">
          <mxGeometry x="887" y="280" width="120" height="40" as="geometry" />
        </mxCell>
        <mxCell id="AtgP_xt9bwcPU-3vSrDr-75" value="L1 : ON" style="strokeWidth=2;html=1;shape=mxgraph.flowchart.display;whiteSpace=wrap;fillColor=#E1D5E7;" vertex="1" parent="WIyWlLk6GJQsqaUBKTNV-1">
          <mxGeometry x="1077" y="320" width="100" height="60" as="geometry" />
        </mxCell>
        <mxCell id="AtgP_xt9bwcPU-3vSrDr-76" value="L8 : 2HZ **" style="strokeWidth=2;html=1;shape=mxgraph.flowchart.display;whiteSpace=wrap;fillColor=#E1D5E7;" vertex="1" parent="WIyWlLk6GJQsqaUBKTNV-1">
          <mxGeometry x="1077" y="380" width="100" height="60" as="geometry" />
        </mxCell>
        <mxCell id="AtgP_xt9bwcPU-3vSrDr-77" value="L10 : ON" style="strokeWidth=2;html=1;shape=mxgraph.flowchart.display;whiteSpace=wrap;fillColor=#E1D5E7;" vertex="1" parent="WIyWlLk6GJQsqaUBKTNV-1">
          <mxGeometry x="1077" y="440" width="100" height="60" as="geometry" />
        </mxCell>
        <mxCell id="AtgP_xt9bwcPU-3vSrDr-78" value="" style="endArrow=none;dashed=1;html=1;entryX=-0.036;entryY=0.498;entryDx=0;entryDy=0;entryPerimeter=0;" edge="1" parent="WIyWlLk6GJQsqaUBKTNV-1" target="AtgP_xt9bwcPU-3vSrDr-75">
          <mxGeometry width="50" height="50" relative="1" as="geometry">
            <mxPoint x="947" y="350" as="sourcePoint" />
            <mxPoint x="1057" y="340" as="targetPoint" />
          </mxGeometry>
        </mxCell>
        <mxCell id="AtgP_xt9bwcPU-3vSrDr-79" value="" style="endArrow=none;dashed=1;html=1;entryX=0;entryY=0.5;entryDx=0;entryDy=0;entryPerimeter=0;" edge="1" parent="WIyWlLk6GJQsqaUBKTNV-1" target="AtgP_xt9bwcPU-3vSrDr-76">
          <mxGeometry width="50" height="50" relative="1" as="geometry">
            <mxPoint x="1027" y="350" as="sourcePoint" />
            <mxPoint x="1117" y="470" as="targetPoint" />
          </mxGeometry>
        </mxCell>
        <mxCell id="AtgP_xt9bwcPU-3vSrDr-80" value="" style="endArrow=none;dashed=1;html=1;entryX=0;entryY=0.5;entryDx=0;entryDy=0;entryPerimeter=0;" edge="1" parent="WIyWlLk6GJQsqaUBKTNV-1" target="AtgP_xt9bwcPU-3vSrDr-77">
          <mxGeometry width="50" height="50" relative="1" as="geometry">
            <mxPoint x="1027" y="350" as="sourcePoint" />
            <mxPoint x="1067" y="470" as="targetPoint" />
          </mxGeometry>
        </mxCell>
        <mxCell id="AtgP_xt9bwcPU-3vSrDr-81" style="edgeStyle=orthogonalEdgeStyle;rounded=0;orthogonalLoop=1;jettySize=auto;html=1;exitX=0.5;exitY=1;exitDx=0;exitDy=0;entryX=0.5;entryY=0;entryDx=0;entryDy=0;" edge="1" parent="WIyWlLk6GJQsqaUBKTNV-1" source="AtgP_xt9bwcPU-3vSrDr-82" target="AtgP_xt9bwcPU-3vSrDr-84">
          <mxGeometry relative="1" as="geometry" />
        </mxCell>
        <mxCell id="AtgP_xt9bwcPU-3vSrDr-82" value="1 WP ==&amp;gt;POS : 4" style="html=1;strokeWidth=2;shape=manualInput;whiteSpace=wrap;rounded=1;size=26;arcSize=11;" vertex="1" parent="WIyWlLk6GJQsqaUBKTNV-1">
          <mxGeometry x="877" y="380" width="140" height="60" as="geometry" />
        </mxCell>
        <mxCell id="AtgP_xt9bwcPU-3vSrDr-83" style="edgeStyle=orthogonalEdgeStyle;rounded=0;orthogonalLoop=1;jettySize=auto;html=1;exitX=0.5;exitY=1;exitDx=0;exitDy=0;entryX=0.5;entryY=0;entryDx=0;entryDy=0;" edge="1" parent="WIyWlLk6GJQsqaUBKTNV-1" source="AtgP_xt9bwcPU-3vSrDr-84" target="AtgP_xt9bwcPU-3vSrDr-91">
          <mxGeometry relative="1" as="geometry" />
        </mxCell>
        <mxCell id="AtgP_xt9bwcPU-3vSrDr-84" value="B1" style="html=1;strokeWidth=2;shape=manualInput;whiteSpace=wrap;rounded=1;size=26;arcSize=11;" vertex="1" parent="WIyWlLk6GJQsqaUBKTNV-1">
          <mxGeometry x="877" y="470" width="140" height="60" as="geometry" />
        </mxCell>
        <mxCell id="AtgP_xt9bwcPU-3vSrDr-85" value="L1 : OFF" style="strokeWidth=2;html=1;shape=mxgraph.flowchart.display;whiteSpace=wrap;fillColor=#E1D5E7;" vertex="1" parent="WIyWlLk6GJQsqaUBKTNV-1">
          <mxGeometry x="1077" y="535" width="100" height="60" as="geometry" />
        </mxCell>
        <mxCell id="AtgP_xt9bwcPU-3vSrDr-86" value="L7 : ON **" style="strokeWidth=2;html=1;shape=mxgraph.flowchart.display;whiteSpace=wrap;fillColor=#E1D5E7;" vertex="1" parent="WIyWlLk6GJQsqaUBKTNV-1">
          <mxGeometry x="1077" y="595" width="100" height="60" as="geometry" />
        </mxCell>
        <mxCell id="AtgP_xt9bwcPU-3vSrDr-87" value="L10 : OFF" style="strokeWidth=2;html=1;shape=mxgraph.flowchart.display;whiteSpace=wrap;fillColor=#E1D5E7;" vertex="1" parent="WIyWlLk6GJQsqaUBKTNV-1">
          <mxGeometry x="1077" y="655" width="100" height="60" as="geometry" />
        </mxCell>
        <mxCell id="AtgP_xt9bwcPU-3vSrDr-88" value="" style="endArrow=none;dashed=1;html=1;entryX=-0.036;entryY=0.498;entryDx=0;entryDy=0;entryPerimeter=0;" edge="1" parent="WIyWlLk6GJQsqaUBKTNV-1" target="AtgP_xt9bwcPU-3vSrDr-85">
          <mxGeometry width="50" height="50" relative="1" as="geometry">
            <mxPoint x="947" y="565" as="sourcePoint" />
            <mxPoint x="1057" y="555" as="targetPoint" />
          </mxGeometry>
        </mxCell>
        <mxCell id="AtgP_xt9bwcPU-3vSrDr-89" value="" style="endArrow=none;dashed=1;html=1;entryX=0;entryY=0.5;entryDx=0;entryDy=0;entryPerimeter=0;" edge="1" parent="WIyWlLk6GJQsqaUBKTNV-1" target="AtgP_xt9bwcPU-3vSrDr-86">
          <mxGeometry width="50" height="50" relative="1" as="geometry">
            <mxPoint x="1027" y="565" as="sourcePoint" />
            <mxPoint x="1117" y="685" as="targetPoint" />
          </mxGeometry>
        </mxCell>
        <mxCell id="AtgP_xt9bwcPU-3vSrDr-90" value="" style="endArrow=none;dashed=1;html=1;entryX=0;entryY=0.5;entryDx=0;entryDy=0;entryPerimeter=0;" edge="1" parent="WIyWlLk6GJQsqaUBKTNV-1" target="AtgP_xt9bwcPU-3vSrDr-87">
          <mxGeometry width="50" height="50" relative="1" as="geometry">
            <mxPoint x="1027" y="565" as="sourcePoint" />
            <mxPoint x="1067" y="685" as="targetPoint" />
          </mxGeometry>
        </mxCell>
        <mxCell id="AtgP_xt9bwcPU-3vSrDr-91" value="CONTINUE" style="rounded=1;whiteSpace=wrap;html=1;fontSize=12;glass=0;strokeWidth=1;shadow=0;fillColor=#99FF99;strokeColor=#FFFFFF;" vertex="1" parent="WIyWlLk6GJQsqaUBKTNV-1">
          <mxGeometry x="887" y="590" width="120" height="40" as="geometry" />
        </mxCell>
        <mxCell id="AtgP_xt9bwcPU-3vSrDr-92" style="edgeStyle=orthogonalEdgeStyle;rounded=0;orthogonalLoop=1;jettySize=auto;html=1;" edge="1" parent="WIyWlLk6GJQsqaUBKTNV-1" source="AtgP_xt9bwcPU-3vSrDr-93" target="AtgP_xt9bwcPU-3vSrDr-125">
          <mxGeometry relative="1" as="geometry" />
        </mxCell>
        <mxCell id="AtgP_xt9bwcPU-3vSrDr-93" value="" style="shape=table;html=1;whiteSpace=wrap;startSize=0;container=1;collapsible=0;childLayout=tableLayout;" vertex="1" parent="WIyWlLk6GJQsqaUBKTNV-1">
          <mxGeometry x="970" y="800" width="220" height="310" as="geometry" />
        </mxCell>
        <mxCell id="AtgP_xt9bwcPU-3vSrDr-94" value="" style="shape=partialRectangle;html=1;whiteSpace=wrap;collapsible=0;dropTarget=0;pointerEvents=0;fillColor=none;top=0;left=0;bottom=0;right=0;points=[[0,0.5],[1,0.5]];portConstraint=eastwest;" vertex="1" parent="AtgP_xt9bwcPU-3vSrDr-93">
          <mxGeometry width="220" height="44" as="geometry" />
        </mxCell>
        <mxCell id="AtgP_xt9bwcPU-3vSrDr-95" value="WP DETECTED" style="shape=partialRectangle;html=1;whiteSpace=wrap;connectable=0;overflow=hidden;fillColor=none;top=0;left=0;bottom=0;right=0;" vertex="1" parent="AtgP_xt9bwcPU-3vSrDr-94">
          <mxGeometry width="73" height="44" as="geometry" />
        </mxCell>
        <mxCell id="AtgP_xt9bwcPU-3vSrDr-96" value="&lt;div&gt;WP&lt;/div&gt;&lt;div&gt;SELECTED&lt;br&gt;&lt;/div&gt;" style="shape=partialRectangle;html=1;whiteSpace=wrap;connectable=0;overflow=hidden;fillColor=none;top=0;left=0;bottom=0;right=0;" vertex="1" parent="AtgP_xt9bwcPU-3vSrDr-94">
          <mxGeometry x="73" width="74" height="44" as="geometry" />
        </mxCell>
        <mxCell id="AtgP_xt9bwcPU-3vSrDr-97" value="Y =" style="shape=partialRectangle;html=1;whiteSpace=wrap;connectable=0;overflow=hidden;fillColor=none;top=0;left=0;bottom=0;right=0;" vertex="1" parent="AtgP_xt9bwcPU-3vSrDr-94">
          <mxGeometry x="147" width="73" height="44" as="geometry" />
        </mxCell>
        <mxCell id="AtgP_xt9bwcPU-3vSrDr-98" value="" style="shape=partialRectangle;html=1;whiteSpace=wrap;collapsible=0;dropTarget=0;pointerEvents=0;fillColor=none;top=0;left=0;bottom=0;right=0;points=[[0,0.5],[1,0.5]];portConstraint=eastwest;" vertex="1" parent="AtgP_xt9bwcPU-3vSrDr-93">
          <mxGeometry y="44" width="220" height="45" as="geometry" />
        </mxCell>
        <mxCell id="AtgP_xt9bwcPU-3vSrDr-99" value="WP1" style="shape=partialRectangle;html=1;whiteSpace=wrap;connectable=0;overflow=hidden;fillColor=none;top=0;left=0;bottom=0;right=0;" vertex="1" parent="AtgP_xt9bwcPU-3vSrDr-98">
          <mxGeometry width="73" height="45" as="geometry" />
        </mxCell>
        <mxCell id="AtgP_xt9bwcPU-3vSrDr-100" value="WP2/WP3" style="shape=partialRectangle;html=1;whiteSpace=wrap;connectable=0;overflow=hidden;fillColor=none;top=0;left=0;bottom=0;right=0;" vertex="1" parent="AtgP_xt9bwcPU-3vSrDr-98">
          <mxGeometry x="73" width="74" height="45" as="geometry" />
        </mxCell>
        <mxCell id="AtgP_xt9bwcPU-3vSrDr-101" value="2" style="shape=partialRectangle;html=1;whiteSpace=wrap;connectable=0;overflow=hidden;fillColor=none;top=0;left=0;bottom=0;right=0;" vertex="1" parent="AtgP_xt9bwcPU-3vSrDr-98">
          <mxGeometry x="147" width="73" height="45" as="geometry" />
        </mxCell>
        <mxCell id="AtgP_xt9bwcPU-3vSrDr-102" value="" style="shape=partialRectangle;html=1;whiteSpace=wrap;collapsible=0;dropTarget=0;pointerEvents=0;fillColor=none;top=0;left=0;bottom=0;right=0;points=[[0,0.5],[1,0.5]];portConstraint=eastwest;" vertex="1" parent="AtgP_xt9bwcPU-3vSrDr-93">
          <mxGeometry y="89" width="220" height="44" as="geometry" />
        </mxCell>
        <mxCell id="AtgP_xt9bwcPU-3vSrDr-103" value="WP1" style="shape=partialRectangle;html=1;whiteSpace=wrap;connectable=0;overflow=hidden;fillColor=none;top=0;left=0;bottom=0;right=0;" vertex="1" parent="AtgP_xt9bwcPU-3vSrDr-102">
          <mxGeometry width="73" height="44" as="geometry" />
        </mxCell>
        <mxCell id="AtgP_xt9bwcPU-3vSrDr-104" value="WP1" style="shape=partialRectangle;html=1;whiteSpace=wrap;connectable=0;overflow=hidden;fillColor=none;top=0;left=0;bottom=0;right=0;" vertex="1" parent="AtgP_xt9bwcPU-3vSrDr-102">
          <mxGeometry x="73" width="74" height="44" as="geometry" />
        </mxCell>
        <mxCell id="AtgP_xt9bwcPU-3vSrDr-105" value="1" style="shape=partialRectangle;html=1;whiteSpace=wrap;connectable=0;overflow=hidden;fillColor=none;top=0;left=0;bottom=0;right=0;" vertex="1" parent="AtgP_xt9bwcPU-3vSrDr-102">
          <mxGeometry x="147" width="73" height="44" as="geometry" />
        </mxCell>
        <mxCell id="AtgP_xt9bwcPU-3vSrDr-106" value="" style="shape=partialRectangle;html=1;whiteSpace=wrap;collapsible=0;dropTarget=0;pointerEvents=0;fillColor=none;top=0;left=0;bottom=0;right=0;points=[[0,0.5],[1,0.5]];portConstraint=eastwest;" vertex="1" parent="AtgP_xt9bwcPU-3vSrDr-93">
          <mxGeometry y="133" width="220" height="44" as="geometry" />
        </mxCell>
        <mxCell id="AtgP_xt9bwcPU-3vSrDr-107" value="WP2" style="shape=partialRectangle;html=1;whiteSpace=wrap;connectable=0;overflow=hidden;fillColor=none;top=0;left=0;bottom=0;right=0;" vertex="1" parent="AtgP_xt9bwcPU-3vSrDr-106">
          <mxGeometry width="73" height="44" as="geometry" />
        </mxCell>
        <mxCell id="AtgP_xt9bwcPU-3vSrDr-108" value="WP1/WP3" style="shape=partialRectangle;html=1;whiteSpace=wrap;connectable=0;overflow=hidden;fillColor=none;top=0;left=0;bottom=0;right=0;" vertex="1" parent="AtgP_xt9bwcPU-3vSrDr-106">
          <mxGeometry x="73" width="74" height="44" as="geometry" />
        </mxCell>
        <mxCell id="AtgP_xt9bwcPU-3vSrDr-109" value="2" style="shape=partialRectangle;html=1;whiteSpace=wrap;connectable=0;overflow=hidden;fillColor=none;top=0;left=0;bottom=0;right=0;" vertex="1" parent="AtgP_xt9bwcPU-3vSrDr-106">
          <mxGeometry x="147" width="73" height="44" as="geometry" />
        </mxCell>
        <mxCell id="AtgP_xt9bwcPU-3vSrDr-110" value="" style="shape=partialRectangle;html=1;whiteSpace=wrap;collapsible=0;dropTarget=0;pointerEvents=0;fillColor=none;top=0;left=0;bottom=0;right=0;points=[[0,0.5],[1,0.5]];portConstraint=eastwest;" vertex="1" parent="AtgP_xt9bwcPU-3vSrDr-93">
          <mxGeometry y="177" width="220" height="44" as="geometry" />
        </mxCell>
        <mxCell id="AtgP_xt9bwcPU-3vSrDr-111" value="WP2" style="shape=partialRectangle;html=1;whiteSpace=wrap;connectable=0;overflow=hidden;fillColor=none;top=0;left=0;bottom=0;right=0;" vertex="1" parent="AtgP_xt9bwcPU-3vSrDr-110">
          <mxGeometry width="73" height="44" as="geometry" />
        </mxCell>
        <mxCell id="AtgP_xt9bwcPU-3vSrDr-112" value="&lt;div&gt;WP2&lt;/div&gt;" style="shape=partialRectangle;html=1;whiteSpace=wrap;connectable=0;overflow=hidden;fillColor=none;top=0;left=0;bottom=0;right=0;" vertex="1" parent="AtgP_xt9bwcPU-3vSrDr-110">
          <mxGeometry x="73" width="74" height="44" as="geometry" />
        </mxCell>
        <mxCell id="AtgP_xt9bwcPU-3vSrDr-113" value="3" style="shape=partialRectangle;html=1;whiteSpace=wrap;connectable=0;overflow=hidden;fillColor=none;top=0;left=0;bottom=0;right=0;" vertex="1" parent="AtgP_xt9bwcPU-3vSrDr-110">
          <mxGeometry x="147" width="73" height="44" as="geometry" />
        </mxCell>
        <mxCell id="AtgP_xt9bwcPU-3vSrDr-114" value="" style="shape=partialRectangle;html=1;whiteSpace=wrap;collapsible=0;dropTarget=0;pointerEvents=0;fillColor=none;top=0;left=0;bottom=0;right=0;points=[[0,0.5],[1,0.5]];portConstraint=eastwest;" vertex="1" parent="AtgP_xt9bwcPU-3vSrDr-93">
          <mxGeometry y="221" width="220" height="45" as="geometry" />
        </mxCell>
        <mxCell id="AtgP_xt9bwcPU-3vSrDr-115" value="WP3" style="shape=partialRectangle;html=1;whiteSpace=wrap;connectable=0;overflow=hidden;fillColor=none;top=0;left=0;bottom=0;right=0;" vertex="1" parent="AtgP_xt9bwcPU-3vSrDr-114">
          <mxGeometry width="73" height="45" as="geometry" />
        </mxCell>
        <mxCell id="AtgP_xt9bwcPU-3vSrDr-116" value="WP1/WP2" style="shape=partialRectangle;html=1;whiteSpace=wrap;connectable=0;overflow=hidden;fillColor=none;top=0;left=0;bottom=0;right=0;" vertex="1" parent="AtgP_xt9bwcPU-3vSrDr-114">
          <mxGeometry x="73" width="74" height="45" as="geometry" />
        </mxCell>
        <mxCell id="AtgP_xt9bwcPU-3vSrDr-117" value="2" style="shape=partialRectangle;html=1;whiteSpace=wrap;connectable=0;overflow=hidden;fillColor=none;top=0;left=0;bottom=0;right=0;" vertex="1" parent="AtgP_xt9bwcPU-3vSrDr-114">
          <mxGeometry x="147" width="73" height="45" as="geometry" />
        </mxCell>
        <mxCell id="AtgP_xt9bwcPU-3vSrDr-118" value="" style="shape=partialRectangle;html=1;whiteSpace=wrap;collapsible=0;dropTarget=0;pointerEvents=0;fillColor=none;top=0;left=0;bottom=0;right=0;points=[[0,0.5],[1,0.5]];portConstraint=eastwest;" vertex="1" parent="AtgP_xt9bwcPU-3vSrDr-93">
          <mxGeometry y="266" width="220" height="44" as="geometry" />
        </mxCell>
        <mxCell id="AtgP_xt9bwcPU-3vSrDr-119" value="WP3" style="shape=partialRectangle;html=1;whiteSpace=wrap;connectable=0;overflow=hidden;fillColor=none;top=0;left=0;bottom=0;right=0;" vertex="1" parent="AtgP_xt9bwcPU-3vSrDr-118">
          <mxGeometry width="73" height="44" as="geometry" />
        </mxCell>
        <mxCell id="AtgP_xt9bwcPU-3vSrDr-120" value="WP3" style="shape=partialRectangle;html=1;whiteSpace=wrap;connectable=0;overflow=hidden;fillColor=none;top=0;left=0;bottom=0;right=0;" vertex="1" parent="AtgP_xt9bwcPU-3vSrDr-118">
          <mxGeometry x="73" width="74" height="44" as="geometry" />
        </mxCell>
        <mxCell id="AtgP_xt9bwcPU-3vSrDr-121" value="4" style="shape=partialRectangle;html=1;whiteSpace=wrap;connectable=0;overflow=hidden;fillColor=none;top=0;left=0;bottom=0;right=0;" vertex="1" parent="AtgP_xt9bwcPU-3vSrDr-118">
          <mxGeometry x="147" width="73" height="44" as="geometry" />
        </mxCell>
        <mxCell id="AtgP_xt9bwcPU-3vSrDr-122" style="edgeStyle=orthogonalEdgeStyle;rounded=0;orthogonalLoop=1;jettySize=auto;html=1;exitX=0.5;exitY=1;exitDx=0;exitDy=0;exitPerimeter=0;entryX=0.5;entryY=0;entryDx=0;entryDy=0;" edge="1" parent="WIyWlLk6GJQsqaUBKTNV-1" target="AtgP_xt9bwcPU-3vSrDr-127">
          <mxGeometry relative="1" as="geometry">
            <mxPoint x="1126" y="1330" as="sourcePoint" />
          </mxGeometry>
        </mxCell>
        <mxCell id="AtgP_xt9bwcPU-3vSrDr-123" style="edgeStyle=orthogonalEdgeStyle;rounded=0;orthogonalLoop=1;jettySize=auto;html=1;exitX=1;exitY=0.5;exitDx=0;exitDy=0;exitPerimeter=0;entryX=0.854;entryY=-0.033;entryDx=0;entryDy=0;entryPerimeter=0;" edge="1" parent="WIyWlLk6GJQsqaUBKTNV-1" source="AtgP_xt9bwcPU-3vSrDr-141" target="AtgP_xt9bwcPU-3vSrDr-134">
          <mxGeometry relative="1" as="geometry">
            <mxPoint x="1557" y="1600" as="targetPoint" />
          </mxGeometry>
        </mxCell>
        <mxCell id="AtgP_xt9bwcPU-3vSrDr-124" style="edgeStyle=orthogonalEdgeStyle;rounded=0;orthogonalLoop=1;jettySize=auto;html=1;exitX=0;exitY=0.5;exitDx=0;exitDy=0;exitPerimeter=0;entryX=0.5;entryY=0;entryDx=0;entryDy=0;" edge="1" parent="WIyWlLk6GJQsqaUBKTNV-1" source="AtgP_xt9bwcPU-3vSrDr-149" target="AtgP_xt9bwcPU-3vSrDr-144">
          <mxGeometry relative="1" as="geometry">
            <mxPoint x="977" y="1610" as="targetPoint" />
          </mxGeometry>
        </mxCell>
        <mxCell id="AtgP_xt9bwcPU-3vSrDr-191" style="edgeStyle=orthogonalEdgeStyle;rounded=0;orthogonalLoop=1;jettySize=auto;html=1;exitX=0;exitY=0.5;exitDx=0;exitDy=0;exitPerimeter=0;entryX=1;entryY=0.5;entryDx=0;entryDy=0;" edge="1" parent="WIyWlLk6GJQsqaUBKTNV-1" source="AtgP_xt9bwcPU-3vSrDr-125" target="AtgP_xt9bwcPU-3vSrDr-149">
          <mxGeometry relative="1" as="geometry" />
        </mxCell>
        <mxCell id="AtgP_xt9bwcPU-3vSrDr-212" style="edgeStyle=orthogonalEdgeStyle;rounded=0;orthogonalLoop=1;jettySize=auto;html=1;exitX=0.5;exitY=1;exitDx=0;exitDy=0;exitPerimeter=0;" edge="1" parent="WIyWlLk6GJQsqaUBKTNV-1" source="AtgP_xt9bwcPU-3vSrDr-125" target="AtgP_xt9bwcPU-3vSrDr-201">
          <mxGeometry relative="1" as="geometry">
            <Array as="points">
              <mxPoint x="1241" y="1300" />
              <mxPoint x="1301" y="1300" />
            </Array>
          </mxGeometry>
        </mxCell>
        <mxCell id="AtgP_xt9bwcPU-3vSrDr-125" value="Y = ?" style="strokeWidth=2;html=1;shape=mxgraph.flowchart.decision;whiteSpace=wrap;fillColor=#CCE5FF;" vertex="1" parent="WIyWlLk6GJQsqaUBKTNV-1">
          <mxGeometry x="1136" y="1190" width="210" height="100" as="geometry" />
        </mxCell>
        <mxCell id="AtgP_xt9bwcPU-3vSrDr-178" style="edgeStyle=orthogonalEdgeStyle;rounded=0;orthogonalLoop=1;jettySize=auto;html=1;exitX=0.5;exitY=1;exitDx=0;exitDy=0;entryX=0.5;entryY=0;entryDx=0;entryDy=0;" edge="1" parent="WIyWlLk6GJQsqaUBKTNV-1" source="AtgP_xt9bwcPU-3vSrDr-127" target="AtgP_xt9bwcPU-3vSrDr-176">
          <mxGeometry relative="1" as="geometry" />
        </mxCell>
        <mxCell id="AtgP_xt9bwcPU-3vSrDr-127" value="WP ==&amp;gt; POS : 3" style="shape=process;whiteSpace=wrap;html=1;backgroundOutline=1;fillColor=#FFE599;" vertex="1" parent="WIyWlLk6GJQsqaUBKTNV-1">
          <mxGeometry x="1061" y="1340" width="130" height="60" as="geometry" />
        </mxCell>
        <mxCell id="AtgP_xt9bwcPU-3vSrDr-128" value="TA4 : B" style="rounded=1;whiteSpace=wrap;html=1;fontSize=12;glass=0;strokeWidth=1;shadow=0;fillColor=#99FF99;strokeColor=#FFFFFF;" vertex="1" parent="WIyWlLk6GJQsqaUBKTNV-1">
          <mxGeometry x="1065" y="1890" width="120" height="40" as="geometry" />
        </mxCell>
        <mxCell id="AtgP_xt9bwcPU-3vSrDr-131" value="1" style="text;html=1;strokeColor=#FFFFFF;fillColor=#FFFFFF;align=center;verticalAlign=middle;whiteSpace=wrap;rounded=0;" vertex="1" parent="WIyWlLk6GJQsqaUBKTNV-1">
          <mxGeometry x="1105" y="1310" width="40" height="20" as="geometry" />
        </mxCell>
        <mxCell id="AtgP_xt9bwcPU-3vSrDr-132" style="edgeStyle=orthogonalEdgeStyle;rounded=0;orthogonalLoop=1;jettySize=auto;html=1;exitX=0.5;exitY=1;exitDx=0;exitDy=0;exitPerimeter=0;entryX=0.5;entryY=0;entryDx=0;entryDy=0;" edge="1" parent="WIyWlLk6GJQsqaUBKTNV-1" source="AtgP_xt9bwcPU-3vSrDr-125" target="AtgP_xt9bwcPU-3vSrDr-131">
          <mxGeometry relative="1" as="geometry">
            <mxPoint x="1242" y="1290" as="sourcePoint" />
            <mxPoint x="1242" y="1330" as="targetPoint" />
            <Array as="points">
              <mxPoint x="1241" y="1300" />
              <mxPoint x="1125" y="1300" />
            </Array>
          </mxGeometry>
        </mxCell>
        <mxCell id="AtgP_xt9bwcPU-3vSrDr-133" style="edgeStyle=orthogonalEdgeStyle;rounded=0;orthogonalLoop=1;jettySize=auto;html=1;exitX=0.5;exitY=1;exitDx=0;exitDy=0;entryX=0.5;entryY=0;entryDx=0;entryDy=0;" edge="1" parent="WIyWlLk6GJQsqaUBKTNV-1" source="AtgP_xt9bwcPU-3vSrDr-134" target="AtgP_xt9bwcPU-3vSrDr-138">
          <mxGeometry relative="1" as="geometry" />
        </mxCell>
        <mxCell id="AtgP_xt9bwcPU-3vSrDr-134" value="WP ==&amp;gt; POS : 7" style="shape=process;whiteSpace=wrap;html=1;backgroundOutline=1;fillColor=#FFE599;" vertex="1" parent="WIyWlLk6GJQsqaUBKTNV-1">
          <mxGeometry x="1286" y="2010" width="130" height="60" as="geometry" />
        </mxCell>
        <mxCell id="AtgP_xt9bwcPU-3vSrDr-135" value="L8 : ON **" style="strokeWidth=2;html=1;shape=mxgraph.flowchart.display;whiteSpace=wrap;fillColor=#E1D5E7;" vertex="1" parent="WIyWlLk6GJQsqaUBKTNV-1">
          <mxGeometry x="1491" y="2080" width="100" height="60" as="geometry" />
        </mxCell>
        <mxCell id="AtgP_xt9bwcPU-3vSrDr-136" value="" style="endArrow=none;dashed=1;html=1;entryX=-0.036;entryY=0.498;entryDx=0;entryDy=0;entryPerimeter=0;" edge="1" parent="WIyWlLk6GJQsqaUBKTNV-1">
          <mxGeometry width="50" height="50" relative="1" as="geometry">
            <mxPoint x="1361" y="2110.12" as="sourcePoint" />
            <mxPoint x="1487.3999999999996" y="2110" as="targetPoint" />
          </mxGeometry>
        </mxCell>
        <mxCell id="AtgP_xt9bwcPU-3vSrDr-137" style="edgeStyle=orthogonalEdgeStyle;rounded=0;orthogonalLoop=1;jettySize=auto;html=1;exitX=0.5;exitY=1;exitDx=0;exitDy=0;entryX=0.5;entryY=0;entryDx=0;entryDy=0;" edge="1" parent="WIyWlLk6GJQsqaUBKTNV-1" source="AtgP_xt9bwcPU-3vSrDr-138" target="AtgP_xt9bwcPU-3vSrDr-139">
          <mxGeometry relative="1" as="geometry" />
        </mxCell>
        <mxCell id="AtgP_xt9bwcPU-3vSrDr-138" value="REMOVE WP" style="html=1;strokeWidth=2;shape=manualInput;whiteSpace=wrap;rounded=1;size=26;arcSize=11;" vertex="1" parent="WIyWlLk6GJQsqaUBKTNV-1">
          <mxGeometry x="1281" y="2130" width="140" height="60" as="geometry" />
        </mxCell>
        <mxCell id="AtgP_xt9bwcPU-3vSrDr-139" value="TB4 : B" style="rounded=1;whiteSpace=wrap;html=1;fontSize=12;glass=0;strokeWidth=1;shadow=0;fillColor=#99FF99;strokeColor=#FFFFFF;" vertex="1" parent="WIyWlLk6GJQsqaUBKTNV-1">
          <mxGeometry x="1291" y="2220" width="120" height="40" as="geometry" />
        </mxCell>
        <mxCell id="AtgP_xt9bwcPU-3vSrDr-140" style="edgeStyle=orthogonalEdgeStyle;rounded=0;orthogonalLoop=1;jettySize=auto;html=1;exitX=0.5;exitY=1;exitDx=0;exitDy=0;" edge="1" parent="WIyWlLk6GJQsqaUBKTNV-1" source="AtgP_xt9bwcPU-3vSrDr-141" target="AtgP_xt9bwcPU-3vSrDr-141">
          <mxGeometry relative="1" as="geometry" />
        </mxCell>
        <mxCell id="AtgP_xt9bwcPU-3vSrDr-141" value="2" style="text;html=1;strokeColor=none;fillColor=#FFFFFF;align=center;verticalAlign=middle;whiteSpace=wrap;rounded=0;" vertex="1" parent="WIyWlLk6GJQsqaUBKTNV-1">
          <mxGeometry x="1427" y="1230" width="40" height="20" as="geometry" />
        </mxCell>
        <mxCell id="AtgP_xt9bwcPU-3vSrDr-142" style="edgeStyle=orthogonalEdgeStyle;rounded=0;orthogonalLoop=1;jettySize=auto;html=1;exitX=1;exitY=0.5;exitDx=0;exitDy=0;exitPerimeter=0;" edge="1" parent="WIyWlLk6GJQsqaUBKTNV-1" source="AtgP_xt9bwcPU-3vSrDr-125" target="AtgP_xt9bwcPU-3vSrDr-141">
          <mxGeometry relative="1" as="geometry">
            <mxPoint x="1557" y="1600" as="targetPoint" />
            <mxPoint x="1347" y="1240" as="sourcePoint" />
          </mxGeometry>
        </mxCell>
        <mxCell id="AtgP_xt9bwcPU-3vSrDr-143" style="edgeStyle=orthogonalEdgeStyle;rounded=0;orthogonalLoop=1;jettySize=auto;html=1;exitX=0.5;exitY=1;exitDx=0;exitDy=0;entryX=0.5;entryY=0;entryDx=0;entryDy=0;" edge="1" parent="WIyWlLk6GJQsqaUBKTNV-1" source="AtgP_xt9bwcPU-3vSrDr-144" target="AtgP_xt9bwcPU-3vSrDr-147">
          <mxGeometry relative="1" as="geometry" />
        </mxCell>
        <mxCell id="AtgP_xt9bwcPU-3vSrDr-144" value="WP ==&amp;gt; POS : 2" style="shape=process;whiteSpace=wrap;html=1;backgroundOutline=1;fillColor=#FFE599;" vertex="1" parent="WIyWlLk6GJQsqaUBKTNV-1">
          <mxGeometry x="860" y="2025" width="130" height="60" as="geometry" />
        </mxCell>
        <mxCell id="AtgP_xt9bwcPU-3vSrDr-145" value="Q1 : ON" style="strokeWidth=2;html=1;shape=mxgraph.flowchart.display;whiteSpace=wrap;fillColor=#E1D5E7;" vertex="1" parent="WIyWlLk6GJQsqaUBKTNV-1">
          <mxGeometry x="1060" y="2065" width="100" height="60" as="geometry" />
        </mxCell>
        <mxCell id="AtgP_xt9bwcPU-3vSrDr-146" value="" style="endArrow=none;dashed=1;html=1;entryX=-0.036;entryY=0.498;entryDx=0;entryDy=0;entryPerimeter=0;" edge="1" parent="WIyWlLk6GJQsqaUBKTNV-1">
          <mxGeometry width="50" height="50" relative="1" as="geometry">
            <mxPoint x="930" y="2095.12" as="sourcePoint" />
            <mxPoint x="1056.3999999999996" y="2095" as="targetPoint" />
          </mxGeometry>
        </mxCell>
        <mxCell id="AtgP_xt9bwcPU-3vSrDr-147" value="TA4 : B" style="rounded=1;whiteSpace=wrap;html=1;fontSize=12;glass=0;strokeWidth=1;shadow=0;fillColor=#99FF99;strokeColor=#FFFFFF;" vertex="1" parent="WIyWlLk6GJQsqaUBKTNV-1">
          <mxGeometry x="865" y="2115" width="120" height="40" as="geometry" />
        </mxCell>
        <mxCell id="AtgP_xt9bwcPU-3vSrDr-148" value="2" style="text;html=1;strokeColor=none;fillColor=#FFFFFF;align=center;verticalAlign=middle;whiteSpace=wrap;rounded=0;" vertex="1" parent="WIyWlLk6GJQsqaUBKTNV-1">
          <mxGeometry x="1427" y="1230" width="40" height="20" as="geometry" />
        </mxCell>
        <mxCell id="AtgP_xt9bwcPU-3vSrDr-150" value="TASK B" style="text;html=1;strokeColor=none;fillColor=none;align=center;verticalAlign=middle;whiteSpace=wrap;rounded=0;fontSize=100;" vertex="1" parent="WIyWlLk6GJQsqaUBKTNV-1">
          <mxGeometry x="974" y="40.5" width="633" height="20" as="geometry" />
        </mxCell>
        <mxCell id="AtgP_xt9bwcPU-3vSrDr-162" style="edgeStyle=orthogonalEdgeStyle;rounded=0;orthogonalLoop=1;jettySize=auto;html=1;exitX=0.5;exitY=1;exitDx=0;exitDy=0;entryX=0.5;entryY=0;entryDx=0;entryDy=0;" edge="1" parent="WIyWlLk6GJQsqaUBKTNV-1" source="AtgP_xt9bwcPU-3vSrDr-155" target="AtgP_xt9bwcPU-3vSrDr-159">
          <mxGeometry relative="1" as="geometry" />
        </mxCell>
        <mxCell id="AtgP_xt9bwcPU-3vSrDr-155" value="&lt;div&gt;TB4 : B&lt;/div&gt;" style="rounded=1;whiteSpace=wrap;html=1;fontSize=12;glass=0;strokeWidth=1;shadow=0;fillColor=#99FF99;" vertex="1" parent="WIyWlLk6GJQsqaUBKTNV-1">
          <mxGeometry x="2125" y="26" width="120" height="40" as="geometry" />
        </mxCell>
        <mxCell id="AtgP_xt9bwcPU-3vSrDr-157" style="edgeStyle=orthogonalEdgeStyle;rounded=0;orthogonalLoop=1;jettySize=auto;html=1;exitX=0.5;exitY=1;exitDx=0;exitDy=0;entryX=0.495;entryY=0.242;entryDx=0;entryDy=0;entryPerimeter=0;" edge="1" parent="WIyWlLk6GJQsqaUBKTNV-1">
          <mxGeometry relative="1" as="geometry">
            <mxPoint x="2185" y="165" as="sourcePoint" />
            <mxPoint x="2184.499999999999" y="199.52000000000044" as="targetPoint" />
          </mxGeometry>
        </mxCell>
        <mxCell id="AtgP_xt9bwcPU-3vSrDr-164" style="edgeStyle=orthogonalEdgeStyle;rounded=0;orthogonalLoop=1;jettySize=auto;html=1;exitX=0.5;exitY=1;exitDx=0;exitDy=0;exitPerimeter=0;entryX=0.5;entryY=0;entryDx=0;entryDy=0;" edge="1" parent="WIyWlLk6GJQsqaUBKTNV-1" source="AtgP_xt9bwcPU-3vSrDr-158" target="AtgP_xt9bwcPU-3vSrDr-163">
          <mxGeometry relative="1" as="geometry" />
        </mxCell>
        <mxCell id="AtgP_xt9bwcPU-3vSrDr-158" value="INITIAL POSITION?" style="strokeWidth=2;html=1;shape=mxgraph.flowchart.decision;whiteSpace=wrap;fillColor=#CCE5FF;" vertex="1" parent="WIyWlLk6GJQsqaUBKTNV-1">
          <mxGeometry x="2080" y="200" width="210" height="100" as="geometry" />
        </mxCell>
        <mxCell id="AtgP_xt9bwcPU-3vSrDr-159" value="INITIAL POSITION" style="shape=process;whiteSpace=wrap;html=1;backgroundOutline=1;fillColor=#FFE599;" vertex="1" parent="WIyWlLk6GJQsqaUBKTNV-1">
          <mxGeometry x="2120" y="106" width="130" height="60" as="geometry" />
        </mxCell>
        <mxCell id="AtgP_xt9bwcPU-3vSrDr-160" value="L2 : ON" style="strokeWidth=2;html=1;shape=mxgraph.flowchart.display;whiteSpace=wrap;fillColor=#E1D5E7;" vertex="1" parent="WIyWlLk6GJQsqaUBKTNV-1">
          <mxGeometry x="2325" y="147" width="100" height="60" as="geometry" />
        </mxCell>
        <mxCell id="AtgP_xt9bwcPU-3vSrDr-161" value="" style="endArrow=none;dashed=1;html=1;entryX=0;entryY=0.5;entryDx=0;entryDy=0;entryPerimeter=0;" edge="1" parent="WIyWlLk6GJQsqaUBKTNV-1" target="AtgP_xt9bwcPU-3vSrDr-160">
          <mxGeometry width="50" height="50" relative="1" as="geometry">
            <mxPoint x="2185" y="177" as="sourcePoint" />
            <mxPoint x="2355" y="67" as="targetPoint" />
          </mxGeometry>
        </mxCell>
        <mxCell id="AtgP_xt9bwcPU-3vSrDr-163" value="TB4 : A" style="rounded=1;whiteSpace=wrap;html=1;fontSize=12;glass=0;strokeWidth=1;shadow=0;fillColor=#99FF99;strokeColor=#FFFFFF;" vertex="1" parent="WIyWlLk6GJQsqaUBKTNV-1">
          <mxGeometry x="2125" y="406" width="120" height="40" as="geometry" />
        </mxCell>
        <mxCell id="AtgP_xt9bwcPU-3vSrDr-165" value="YES" style="edgeLabel;resizable=0;html=1;align=center;verticalAlign=middle;" connectable="0" vertex="1" parent="WIyWlLk6GJQsqaUBKTNV-1">
          <mxGeometry x="2390" y="-349.9958823529414" as="geometry">
            <mxPoint x="-208" y="711" as="offset" />
          </mxGeometry>
        </mxCell>
        <mxCell id="AtgP_xt9bwcPU-3vSrDr-167" value="" style="endArrow=classic;html=1;exitX=1;exitY=0.5;exitDx=0;exitDy=0;exitPerimeter=0;" edge="1" parent="WIyWlLk6GJQsqaUBKTNV-1">
          <mxGeometry relative="1" as="geometry">
            <mxPoint x="2294.5" y="249.99999999999955" as="sourcePoint" />
            <mxPoint x="2349.5" y="249.99999999999955" as="targetPoint" />
          </mxGeometry>
        </mxCell>
        <mxCell id="AtgP_xt9bwcPU-3vSrDr-168" value="NOT" style="edgeLabel;resizable=0;html=1;align=center;verticalAlign=middle;" connectable="0" vertex="1" parent="AtgP_xt9bwcPU-3vSrDr-167">
          <mxGeometry relative="1" as="geometry" />
        </mxCell>
        <mxCell id="AtgP_xt9bwcPU-3vSrDr-169" value="&lt;div&gt;EVALUATION &lt;br&gt;&lt;/div&gt;&lt;div&gt;END&lt;/div&gt;" style="rounded=1;whiteSpace=wrap;html=1;fontSize=12;glass=0;strokeWidth=1;shadow=0;fillColor=#FFCCCC;strokeColor=#FF9999;" vertex="1" parent="WIyWlLk6GJQsqaUBKTNV-1">
          <mxGeometry x="2349.5" y="230" width="120" height="40" as="geometry" />
        </mxCell>
        <mxCell id="AtgP_xt9bwcPU-3vSrDr-170" value="L2 : OFF" style="strokeWidth=2;html=1;shape=mxgraph.flowchart.display;whiteSpace=wrap;fillColor=#E1D5E7;" vertex="1" parent="WIyWlLk6GJQsqaUBKTNV-1">
          <mxGeometry x="2315" y="300" width="100" height="60" as="geometry" />
        </mxCell>
        <mxCell id="AtgP_xt9bwcPU-3vSrDr-171" value="L1 : ON" style="strokeWidth=2;html=1;shape=mxgraph.flowchart.display;whiteSpace=wrap;fillColor=#E1D5E7;" vertex="1" parent="WIyWlLk6GJQsqaUBKTNV-1">
          <mxGeometry x="2315" y="360" width="100" height="60" as="geometry" />
        </mxCell>
        <mxCell id="AtgP_xt9bwcPU-3vSrDr-172" value="L7 : ON **" style="strokeWidth=2;html=1;shape=mxgraph.flowchart.display;whiteSpace=wrap;fillColor=#E1D5E7;" vertex="1" parent="WIyWlLk6GJQsqaUBKTNV-1">
          <mxGeometry x="2315" y="420" width="100" height="60" as="geometry" />
        </mxCell>
        <mxCell id="AtgP_xt9bwcPU-3vSrDr-173" value="" style="endArrow=none;dashed=1;html=1;entryX=-0.036;entryY=0.498;entryDx=0;entryDy=0;entryPerimeter=0;" edge="1" parent="WIyWlLk6GJQsqaUBKTNV-1" target="AtgP_xt9bwcPU-3vSrDr-170">
          <mxGeometry width="50" height="50" relative="1" as="geometry">
            <mxPoint x="2185" y="330" as="sourcePoint" />
            <mxPoint x="2295" y="320" as="targetPoint" />
          </mxGeometry>
        </mxCell>
        <mxCell id="AtgP_xt9bwcPU-3vSrDr-174" value="" style="endArrow=none;dashed=1;html=1;entryX=0;entryY=0.5;entryDx=0;entryDy=0;entryPerimeter=0;" edge="1" parent="WIyWlLk6GJQsqaUBKTNV-1" target="AtgP_xt9bwcPU-3vSrDr-171">
          <mxGeometry width="50" height="50" relative="1" as="geometry">
            <mxPoint x="2265" y="330" as="sourcePoint" />
            <mxPoint x="2355" y="450" as="targetPoint" />
          </mxGeometry>
        </mxCell>
        <mxCell id="AtgP_xt9bwcPU-3vSrDr-175" value="" style="endArrow=none;dashed=1;html=1;entryX=0;entryY=0.5;entryDx=0;entryDy=0;entryPerimeter=0;" edge="1" parent="WIyWlLk6GJQsqaUBKTNV-1" target="AtgP_xt9bwcPU-3vSrDr-172">
          <mxGeometry width="50" height="50" relative="1" as="geometry">
            <mxPoint x="2265" y="330" as="sourcePoint" />
            <mxPoint x="2305" y="450" as="targetPoint" />
          </mxGeometry>
        </mxCell>
        <mxCell id="AtgP_xt9bwcPU-3vSrDr-182" style="edgeStyle=orthogonalEdgeStyle;rounded=0;orthogonalLoop=1;jettySize=auto;html=1;exitX=0.5;exitY=1;exitDx=0;exitDy=0;entryX=0.5;entryY=0;entryDx=0;entryDy=0;" edge="1" parent="WIyWlLk6GJQsqaUBKTNV-1" source="AtgP_xt9bwcPU-3vSrDr-176" target="AtgP_xt9bwcPU-3vSrDr-179">
          <mxGeometry relative="1" as="geometry" />
        </mxCell>
        <mxCell id="AtgP_xt9bwcPU-3vSrDr-176" value="WP ==&amp;gt; POS : 6" style="shape=process;whiteSpace=wrap;html=1;backgroundOutline=1;fillColor=#FFE599;" vertex="1" parent="WIyWlLk6GJQsqaUBKTNV-1">
          <mxGeometry x="1060" y="1430" width="130" height="60" as="geometry" />
        </mxCell>
        <mxCell id="AtgP_xt9bwcPU-3vSrDr-184" style="edgeStyle=orthogonalEdgeStyle;rounded=0;orthogonalLoop=1;jettySize=auto;html=1;exitX=0.5;exitY=1;exitDx=0;exitDy=0;entryX=0.5;entryY=0;entryDx=0;entryDy=0;" edge="1" parent="WIyWlLk6GJQsqaUBKTNV-1" source="AtgP_xt9bwcPU-3vSrDr-179" target="AtgP_xt9bwcPU-3vSrDr-183">
          <mxGeometry relative="1" as="geometry" />
        </mxCell>
        <mxCell id="AtgP_xt9bwcPU-3vSrDr-179" value="WP ==&amp;gt; POS : 8" style="shape=process;whiteSpace=wrap;html=1;backgroundOutline=1;fillColor=#FFE599;" vertex="1" parent="WIyWlLk6GJQsqaUBKTNV-1">
          <mxGeometry x="1061" y="1530" width="130" height="60" as="geometry" />
        </mxCell>
        <mxCell id="AtgP_xt9bwcPU-3vSrDr-149" value="3" style="text;html=1;strokeColor=none;fillColor=#FFFFFF;align=center;verticalAlign=middle;whiteSpace=wrap;rounded=0;" vertex="1" parent="WIyWlLk6GJQsqaUBKTNV-1">
          <mxGeometry x="990" y="1230" width="40" height="20" as="geometry" />
        </mxCell>
        <mxCell id="AtgP_xt9bwcPU-3vSrDr-186" style="edgeStyle=orthogonalEdgeStyle;rounded=0;orthogonalLoop=1;jettySize=auto;html=1;exitX=0.5;exitY=1;exitDx=0;exitDy=0;entryX=0.5;entryY=0;entryDx=0;entryDy=0;" edge="1" parent="WIyWlLk6GJQsqaUBKTNV-1" source="AtgP_xt9bwcPU-3vSrDr-183" target="AtgP_xt9bwcPU-3vSrDr-185">
          <mxGeometry relative="1" as="geometry" />
        </mxCell>
        <mxCell id="AtgP_xt9bwcPU-3vSrDr-183" value="WP ==&amp;gt; POS : 9" style="shape=process;whiteSpace=wrap;html=1;backgroundOutline=1;fillColor=#FFE599;" vertex="1" parent="WIyWlLk6GJQsqaUBKTNV-1">
          <mxGeometry x="1060" y="1620" width="130" height="60" as="geometry" />
        </mxCell>
        <mxCell id="AtgP_xt9bwcPU-3vSrDr-188" style="edgeStyle=orthogonalEdgeStyle;rounded=0;orthogonalLoop=1;jettySize=auto;html=1;exitX=0.5;exitY=1;exitDx=0;exitDy=0;entryX=0.5;entryY=0;entryDx=0;entryDy=0;" edge="1" parent="WIyWlLk6GJQsqaUBKTNV-1" source="AtgP_xt9bwcPU-3vSrDr-185" target="AtgP_xt9bwcPU-3vSrDr-187">
          <mxGeometry relative="1" as="geometry" />
        </mxCell>
        <mxCell id="AtgP_xt9bwcPU-3vSrDr-185" value="Close cap WP" style="shape=process;whiteSpace=wrap;html=1;backgroundOutline=1;fillColor=#FFE599;" vertex="1" parent="WIyWlLk6GJQsqaUBKTNV-1">
          <mxGeometry x="1061" y="1710" width="130" height="60" as="geometry" />
        </mxCell>
        <mxCell id="AtgP_xt9bwcPU-3vSrDr-189" style="edgeStyle=orthogonalEdgeStyle;rounded=0;orthogonalLoop=1;jettySize=auto;html=1;exitX=0.5;exitY=1;exitDx=0;exitDy=0;entryX=0.5;entryY=0;entryDx=0;entryDy=0;" edge="1" parent="WIyWlLk6GJQsqaUBKTNV-1" source="AtgP_xt9bwcPU-3vSrDr-187" target="AtgP_xt9bwcPU-3vSrDr-128">
          <mxGeometry relative="1" as="geometry" />
        </mxCell>
        <mxCell id="AtgP_xt9bwcPU-3vSrDr-187" value="WP ==&amp;gt; POS : 1" style="shape=process;whiteSpace=wrap;html=1;backgroundOutline=1;fillColor=#FFE599;" vertex="1" parent="WIyWlLk6GJQsqaUBKTNV-1">
          <mxGeometry x="1061" y="1800" width="130" height="60" as="geometry" />
        </mxCell>
        <mxCell id="AtgP_xt9bwcPU-3vSrDr-197" style="edgeStyle=orthogonalEdgeStyle;rounded=0;orthogonalLoop=1;jettySize=auto;html=1;exitX=0.5;exitY=1;exitDx=0;exitDy=0;exitPerimeter=0;entryX=0.5;entryY=0;entryDx=0;entryDy=0;" edge="1" parent="WIyWlLk6GJQsqaUBKTNV-1" target="AtgP_xt9bwcPU-3vSrDr-199">
          <mxGeometry relative="1" as="geometry">
            <mxPoint x="1302" y="1330" as="sourcePoint" />
          </mxGeometry>
        </mxCell>
        <mxCell id="AtgP_xt9bwcPU-3vSrDr-198" style="edgeStyle=orthogonalEdgeStyle;rounded=0;orthogonalLoop=1;jettySize=auto;html=1;exitX=0.5;exitY=1;exitDx=0;exitDy=0;entryX=0.5;entryY=0;entryDx=0;entryDy=0;" edge="1" parent="WIyWlLk6GJQsqaUBKTNV-1" source="AtgP_xt9bwcPU-3vSrDr-199" target="AtgP_xt9bwcPU-3vSrDr-203">
          <mxGeometry relative="1" as="geometry" />
        </mxCell>
        <mxCell id="AtgP_xt9bwcPU-3vSrDr-199" value="WP ==&amp;gt; POS : 3" style="shape=process;whiteSpace=wrap;html=1;backgroundOutline=1;fillColor=#FFE599;" vertex="1" parent="WIyWlLk6GJQsqaUBKTNV-1">
          <mxGeometry x="1237" y="1340" width="130" height="60" as="geometry" />
        </mxCell>
        <mxCell id="AtgP_xt9bwcPU-3vSrDr-200" value="TA4 : B" style="rounded=1;whiteSpace=wrap;html=1;fontSize=12;glass=0;strokeWidth=1;shadow=0;fillColor=#99FF99;strokeColor=#FFFFFF;" vertex="1" parent="WIyWlLk6GJQsqaUBKTNV-1">
          <mxGeometry x="1241" y="1890" width="120" height="40" as="geometry" />
        </mxCell>
        <mxCell id="AtgP_xt9bwcPU-3vSrDr-201" value="4" style="text;html=1;strokeColor=#FFFFFF;fillColor=#FFFFFF;align=center;verticalAlign=middle;whiteSpace=wrap;rounded=0;" vertex="1" parent="WIyWlLk6GJQsqaUBKTNV-1">
          <mxGeometry x="1281" y="1310" width="40" height="20" as="geometry" />
        </mxCell>
        <mxCell id="AtgP_xt9bwcPU-3vSrDr-202" style="edgeStyle=orthogonalEdgeStyle;rounded=0;orthogonalLoop=1;jettySize=auto;html=1;exitX=0.5;exitY=1;exitDx=0;exitDy=0;entryX=0.5;entryY=0;entryDx=0;entryDy=0;" edge="1" parent="WIyWlLk6GJQsqaUBKTNV-1" source="AtgP_xt9bwcPU-3vSrDr-203" target="AtgP_xt9bwcPU-3vSrDr-205">
          <mxGeometry relative="1" as="geometry" />
        </mxCell>
        <mxCell id="AtgP_xt9bwcPU-3vSrDr-203" value="WP ==&amp;gt; POS : 6" style="shape=process;whiteSpace=wrap;html=1;backgroundOutline=1;fillColor=#FFE599;" vertex="1" parent="WIyWlLk6GJQsqaUBKTNV-1">
          <mxGeometry x="1236" y="1430" width="130" height="60" as="geometry" />
        </mxCell>
        <mxCell id="AtgP_xt9bwcPU-3vSrDr-204" style="edgeStyle=orthogonalEdgeStyle;rounded=0;orthogonalLoop=1;jettySize=auto;html=1;exitX=0.5;exitY=1;exitDx=0;exitDy=0;entryX=0.5;entryY=0;entryDx=0;entryDy=0;" edge="1" parent="WIyWlLk6GJQsqaUBKTNV-1" source="AtgP_xt9bwcPU-3vSrDr-205" target="AtgP_xt9bwcPU-3vSrDr-207">
          <mxGeometry relative="1" as="geometry" />
        </mxCell>
        <mxCell id="AtgP_xt9bwcPU-3vSrDr-205" value="WP ==&amp;gt; POS : 8" style="shape=process;whiteSpace=wrap;html=1;backgroundOutline=1;fillColor=#FFE599;" vertex="1" parent="WIyWlLk6GJQsqaUBKTNV-1">
          <mxGeometry x="1237" y="1530" width="130" height="60" as="geometry" />
        </mxCell>
        <mxCell id="AtgP_xt9bwcPU-3vSrDr-206" style="edgeStyle=orthogonalEdgeStyle;rounded=0;orthogonalLoop=1;jettySize=auto;html=1;exitX=0.5;exitY=1;exitDx=0;exitDy=0;entryX=0.5;entryY=0;entryDx=0;entryDy=0;" edge="1" parent="WIyWlLk6GJQsqaUBKTNV-1" source="AtgP_xt9bwcPU-3vSrDr-207" target="AtgP_xt9bwcPU-3vSrDr-209">
          <mxGeometry relative="1" as="geometry" />
        </mxCell>
        <mxCell id="AtgP_xt9bwcPU-3vSrDr-207" value="WP ==&amp;gt; POS : 9" style="shape=process;whiteSpace=wrap;html=1;backgroundOutline=1;fillColor=#FFE599;" vertex="1" parent="WIyWlLk6GJQsqaUBKTNV-1">
          <mxGeometry x="1236" y="1620" width="130" height="60" as="geometry" />
        </mxCell>
        <mxCell id="AtgP_xt9bwcPU-3vSrDr-208" style="edgeStyle=orthogonalEdgeStyle;rounded=0;orthogonalLoop=1;jettySize=auto;html=1;exitX=0.5;exitY=1;exitDx=0;exitDy=0;entryX=0.5;entryY=0;entryDx=0;entryDy=0;" edge="1" parent="WIyWlLk6GJQsqaUBKTNV-1" source="AtgP_xt9bwcPU-3vSrDr-209" target="AtgP_xt9bwcPU-3vSrDr-211">
          <mxGeometry relative="1" as="geometry" />
        </mxCell>
        <mxCell id="AtgP_xt9bwcPU-3vSrDr-209" value="Close cap WP" style="shape=process;whiteSpace=wrap;html=1;backgroundOutline=1;fillColor=#FFE599;" vertex="1" parent="WIyWlLk6GJQsqaUBKTNV-1">
          <mxGeometry x="1237" y="1710" width="130" height="60" as="geometry" />
        </mxCell>
        <mxCell id="AtgP_xt9bwcPU-3vSrDr-210" style="edgeStyle=orthogonalEdgeStyle;rounded=0;orthogonalLoop=1;jettySize=auto;html=1;exitX=0.5;exitY=1;exitDx=0;exitDy=0;entryX=0.5;entryY=0;entryDx=0;entryDy=0;" edge="1" parent="WIyWlLk6GJQsqaUBKTNV-1" source="AtgP_xt9bwcPU-3vSrDr-211" target="AtgP_xt9bwcPU-3vSrDr-200">
          <mxGeometry relative="1" as="geometry" />
        </mxCell>
        <mxCell id="AtgP_xt9bwcPU-3vSrDr-211" value="WP ==&amp;gt; POS : 2" style="shape=process;whiteSpace=wrap;html=1;backgroundOutline=1;fillColor=#FFE599;" vertex="1" parent="WIyWlLk6GJQsqaUBKTNV-1">
          <mxGeometry x="1237" y="1800" width="130" height="60" as="geometry" />
        </mxCell>
      </root>
    </mxGraphModel>
  </diagram>
</mxfile>
